<?xml version="1.0" encoding="UTF-8" standalone="yes"?>
<!DOCTYPE svg PUBLIC "-//W3C//DTD SVG 1.0//EN" "http://www.w3.org/TR/2001/REC-SVG-20010904/DTD/svg10.dtd">
<svg width="40" height="30" xmlns="http://www.w3.org/2000/svg" xmlns:svg="http://www.w3.org/2000/svg" xmlns:xlink="http://www.w3.org/1999/xlink" xmlns:slic3r="http://slic3r.org/namespaces/slic3r">
  <!-- 
  Generated using Slic3r 1.2.9
  http://slic3r.org/
   -->
  <g id="layer0" slic3r:z="2.5e-007">
    <polygon slic3r:type="contour" points="40,30 0,30 0,0 40,0" style="fill: white" />
  </g>
  <g id="layer1" slic3r:z="5.5e-007">
    <polygon slic3r:type="contour" points="40,30 0,30 0,0 40,0" style="fill: white" />
  </g>
  <g id="layer2" slic3r:z="6.5e-007">
    <polygon slic3r:type="contour" points="40,30 0,30 0,0 40,0" style="fill: white" />
  </g>
  <g id="layer3" slic3r:z="7.5e-007">
    <polygon slic3r:type="contour" points="40,30 0,30 0,0 40,0" style="fill: white" />
  </g>
  <g id="layer4" slic3r:z="8.5e-007">
    <polygon slic3r:type="contour" points="40,30 0,30 0,0 40,0" style="fill: white" />
  </g>
  <g id="layer5" slic3r:z="9.5e-007">
    <polygon slic3r:type="contour" points="40,30 0,30 0,0 40,0" style="fill: white" />
  </g>
  <g id="layer6" slic3r:z="1.05e-006">
    <polygon slic3r:type="contour" points="40,30 0,30 0,0 40,0" style="fill: white" />
  </g>
  <g id="layer7" slic3r:z="1.15e-006">
    <polygon slic3r:type="contour" points="40,30 0,30 0,0 40,0" style="fill: white" />
  </g>
  <g id="layer8" slic3r:z="1.25e-006">
    <polygon slic3r:type="contour" points="40,30 0,30 0,0 40,0" style="fill: white" />
  </g>
  <g id="layer9" slic3r:z="1.35e-006">
    <polygon slic3r:type="contour" points="40,30 0,30 0,0 40,0" style="fill: white" />
  </g>
  <g id="layer10" slic3r:z="1.45e-006">
    <polygon slic3r:type="contour" points="40,30 0,30 0,0 40,0" style="fill: white" />
  </g>
  <g id="layer11" slic3r:z="1.55e-006">
    <polygon slic3r:type="contour" points="40,30 0,30 0,0 40,0" style="fill: white" />
  </g>
  <g id="layer12" slic3r:z="1.65e-006">
    <polygon slic3r:type="contour" points="40,30 0,30 0,0 40,0" style="fill: white" />
  </g>
  <g id="layer13" slic3r:z="1.75e-006">
    <polygon slic3r:type="contour" points="40,30 0,30 0,0 40,0" style="fill: white" />
  </g>
  <g id="layer14" slic3r:z="1.85e-006">
    <polygon slic3r:type="contour" points="40,30 0,30 0,0 40,0" style="fill: white" />
  </g>
  <g id="layer15" slic3r:z="1.95e-006">
    <polygon slic3r:type="contour" points="40,30 0,30 0,0 40,0" style="fill: white" />
  </g>
</svg>
