<?xml version="1.0" encoding="UTF-8" standalone="yes"?>
<!DOCTYPE svg PUBLIC "-//W3C//DTD SVG 1.0//EN" "http://www.w3.org/TR/2001/REC-SVG-20010904/DTD/svg10.dtd">
<svg width="100.343421" height="44.245624" xmlns="http://www.w3.org/2000/svg" xmlns:svg="http://www.w3.org/2000/svg" xmlns:xlink="http://www.w3.org/1999/xlink" xmlns:slic3r="http://slic3r.org/namespaces/slic3r">
  <!-- 
  Generated using Slic3r 1.2.9
  http://slic3r.org/
   -->
  <g id="layer0" slic3r:z="2.5e-007">
    <polygon slic3r:type="contour" points="99.327511,27.633947 99.475711,28.688427 99.626079,29.758383 99.679352,30.13743 76.937471,33.333596 32.915002,39.520548 32.755782,39.1753 32.747591,39.157539 32.46873,38.147992 32.45747,38.107224 32.363974,37.136435 32.355292,37.046284 32.428316,36.057576 90.839647,27.848404 99.192664,26.674461" style="fill: white" />
  </g>
  <g id="layer1" slic3r:z="6.5e-007">
    <polygon slic3r:type="contour" points="99.189703,26.653431 99.334639,27.684671 99.473351,28.671599 99.61408,29.673016 99.765631,30.751273 99.827752,31.193288 74.612588,34.737048 33.063392,40.576412 32.817155,40.194939 32.79664,40.163156 32.358395,39.212875 32.320415,39.130519 32.078155,38.253479 32.048879,38.147492 31.963387,37.259799 31.953248,37.154512 32.026293,36.165488 32.031731,36.091868 32.281072,35.009916 92.52836,26.542711 99.045432,25.626798" style="fill: white" />
  </g>
  <g id="layer2" slic3r:z="9.5e-007">
    <polygon slic3r:type="contour" points="99.049767,25.657663 99.202495,26.744411 99.339984,27.722714 99.471575,28.658981 99.60508,29.60899 99.748855,30.631897 99.91056,31.782512 34.384267,40.991632 33.146202,41.165632 32.505215,40.172615 32.451812,40.089884 32.060355,39.241055 32.000035,39.110259 31.785225,38.332595 31.742438,38.177688 31.666897,37.393335 31.651714,37.235683 31.716336,36.360747 31.72617,36.227588 31.975662,35.144979 31.99011,35.082283 32.208434,34.493075 62.224435,30.274602 98.972792,25.109958" style="fill: white" />
  </g>
  <g id="layer3" slic3r:z="1.25e-006">
    <polygon slic3r:type="contour" points="99.070824,25.80745 99.215279,26.835389 99.345335,27.760757 99.469799,28.646361 99.596087,29.544963 99.738109,30.555477 99.888183,31.623281 99.967824,32.189948 70.352647,36.352088 33.203464,41.573064 32.822949,41.110555 32.777322,41.055096 32.193275,40.150291 32.106985,40.016611 31.762317,39.269239 31.679654,39.089996 31.492296,38.411712 31.435995,38.207887 31.370407,37.526867 31.350182,37.316856 31.402961,36.602236 31.402962,36.602236 31.420608,36.363308 31.639137,35.415048 31.670266,35.279979 32.140625,34.010592 96.807183,24.922296 98.904976,24.62747" style="fill: white" />
  </g>
  <g id="layer4" slic3r:z="1.55e-006">
    <polygon slic3r:type="contour" points="98.929879,24.804677 99.091871,25.957233 99.228064,26.92637 99.350679,27.798799 99.468031,28.633741 99.587088,29.480938 99.715295,30.393143 99.862479,31.440361 100.024272,32.591628 39.856576,41.047643 33.259916,41.974743 32.486845,41.035087 32.394147,40.922415 31.881336,40.127972 31.762157,39.943339 31.464277,39.297423 31.359274,39.069732 31.199365,38.490827 31.129552,38.238087 31.073917,37.660403 31.048648,37.398024 31.093001,36.797496 31.115045,36.499032 31.302615,35.685116 31.350421,35.477676 31.77669,34.327275 31.80985,34.237783 32.091953,33.664268 57.925644,30.033577 98.856304,24.281148" style="fill: white" />
  </g>
  <g id="layer5" slic3r:z="1.85e-006">
    <polygon slic3r:type="contour" points="98.960759,25.024395 99.112919,26.107019 99.240855,27.017349 99.356024,27.836842 99.466255,28.621121 99.578088,29.416912 99.698519,30.273767 99.836768,31.257444 100.007647,32.473345 100.06784,32.901608 80.336784,35.674627 33.303482,42.284724 32.978943,41.955511 32.925349,41.901143 32.150739,40.959623 32.010971,40.789735 31.569395,40.105647 31.41733,39.870068 31.166239,39.325603 31.038892,39.049468 30.906435,38.569943 30.823109,38.268287 30.777427,37.793939 30.747116,37.479196 30.786455,36.946536 30.809484,36.634752 30.966092,35.955183 31.030577,35.675368 31.393674,34.695459 31.46213,34.510711 32.044516,33.326716 85.376688,25.831367 98.808864,23.943599" style="fill: white" />
  </g>
  <g id="layer6" slic3r:z="2.15e-006">
    <polygon slic3r:type="contour" points="98.807976,23.937276 98.991639,25.244115 99.133976,26.256804 99.253639,27.108329 99.361376,27.874886 99.464479,28.608501 99.569088,29.352886 99.681743,30.154391 99.811064,31.074524 99.970903,32.211881 100.107848,33.186334 55.21246,39.495971 33.343497,42.569452 32.605056,41.820376 32.483107,41.696671 31.814635,40.884155 31.627798,40.657056 31.257457,40.083323 31.072502,39.796792 30.868199,39.353787 30.71851,39.029204 30.630959,38.712245 30.516668,38.298484 30.480935,37.927475 30.445582,37.560368 30.476496,37.141795 30.503921,36.770472 30.62957,36.225255 30.710734,35.873064 31.010656,35.063643 31.114407,34.78364 31.783598,33.423175 31.818598,33.352017 32.004097,33.03913 43.948607,31.36044 98.768448,23.656014" style="fill: white" />
  </g>
  <g id="layer7" slic3r:z="2.45e-006">
    <polygon slic3r:type="contour" points="98.851535,24.247243 99.02252,25.463836 99.155024,26.40659 99.266423,27.199309 99.366719,27.912927 99.462712,28.595882 99.560095,29.288859 99.664967,30.035013 99.785351,30.891603 99.93416,31.950418 100.135856,33.385594 100.14632,33.46007 97.274759,33.863644 33.38197,42.843192 33.3217,42.789736 33.308049,42.777631 32.231167,41.685239 32.040866,41.492196 31.478531,40.808687 31.244621,40.524375 30.945518,40.061 30.727673,39.723519 30.570161,39.381971 30.39813,39.00894 30.320575,38.728175 30.210226,38.328684 30.184445,38.061011 30.144048,37.641539 30.166535,37.33706 30.19836,36.906191 30.293048,36.495323 30.390889,36.07076 30.627638,35.431831 30.766687,35.056568 31.318821,33.934076 31.422246,33.723811 31.970386,32.799254 67.265423,27.838862 98.734736,23.416138" style="fill: white" />
  </g>
  <g id="layer8" slic3r:z="2.75e-006">
    <polygon slic3r:type="contour" points="7.075922,33 2.161682,33 2.161682,30 7.075922,30" style="fill: white" />
    <polygon slic3r:type="contour" points="98.895103,24.557211 99.0534,25.683556 99.17608,26.556374 99.279215,27.290289 99.372064,27.95097 99.460935,28.583261 99.551095,29.224833 99.648192,29.915638 99.759647,30.708683 99.897415,31.688953 100.084143,33.017667 100.174536,33.660864 75.374991,37.146212 33.410189,43.04398 32.88968,42.582344 32.771807,42.477799 31.857279,41.550103 31.598623,41.287719 31.142428,40.733224 30.861446,40.391692 30.633577,40.038679 30.382846,39.650248 30.272121,39.410155 30.077748,38.988676 30.027645,38.807295 29.903784,38.358883 29.887956,38.194548 29.842516,37.722711 29.856578,37.532319 29.892797,37.041916 29.956524,36.765391 30.071046,36.268452 30.244622,35.800015 30.418966,35.329499 30.854046,34.444975 31.025895,34.095608 31.936674,32.559378 90.525395,24.325273 98.701024,23.176262" style="fill: white" />
  </g>
  <g id="layer9" slic3r:z="3.05e-006">
    <polygon slic3r:type="contour" points="7.249127,33 1.988477,33 1.988477,30 7.249127,30" style="fill: white" />
    <polygon slic3r:type="contour" points="98.729599,23.379577 98.938663,24.867179 99.08428,25.903276 99.197127,26.706157 99.292,27.38127 99.377415,27.989011 99.459159,28.570641 99.542096,29.160808 99.631407,29.796261 99.733935,30.525763 99.860663,31.427489 100.032431,32.649739 100.202752,33.861656 53.47522,40.428779 33.438409,43.244772 32.457662,42.374952 32.235563,42.177971 31.483391,41.414963 31.156382,41.083244 30.806323,40.657755 30.478272,40.259012 30.321637,40.016355 30.038019,39.576975 29.974083,39.438335 29.757365,38.968411 29.724602,38.849798 29.59734,38.389079 29.591465,38.328083 29.540982,37.803884 29.546618,37.727583 29.587235,37.177636 29.620002,37.035459 29.751202,36.466147 29.861604,36.168199 30.071244,35.602428 30.42465,34.883951 30.629544,34.467399 31.519076,32.967009 31.610662,32.812527 31.909738,32.367719 45.484371,30.459928 98.674088,22.984604" style="fill: white" />
  </g>
  <g id="layer10" slic3r:z="3.35e-006">
    <polygon slic3r:type="contour" points="7.422332,33 1.815272,33 1.815272,30 7.422332,30" style="fill: white" />
    <polygon slic3r:type="contour" points="98.791375,23.819123 98.982231,25.177147 99.115159,26.122993 99.218175,26.855943 99.304784,27.472248 99.382759,28.027055 99.457383,28.558021 99.533103,29.096781 99.606642,29.620039 99.708231,30.342843 99.82392,31.166026 99.980727,32.281811 100.222088,33.999268 100.23016,34.056712 98.510663,34.298372 33.465824,43.439824 33.418955,43.402059 33.403919,43.389943 32.025643,42.167555 31.699322,41.87814 31.109504,41.279828 30.714139,40.878771 30.470219,40.582287 30.095096,40.126332 30.009697,39.994031 29.693192,39.5037 29.676043,39.466519 29.516852,39.121332 25.955196,39.621888 18.623906,40.652236 18.546617,40.481675 18.545345,40.478867 18.402724,39.956268 18.400948,39.949759 18.349479,39.421135 18.348942,39.415615 18.382208,38.932476 27.645793,37.630568 29.275158,37.401572 29.281674,37.313356 29.283477,37.305528 29.43136,36.663839 29.478586,36.536383 29.723524,35.875355 29.924495,35.466776 30.233191,34.839196 30.89686,33.719775 31.128852,33.328467 31.886414,32.20176 66.271195,27.369294 98.650768,22.818644" style="fill: white" />
  </g>
  <g id="layer11" slic3r:z="3.65e-006">
    <polygon slic3r:type="contour" points="5.55865,30 7.595537,30 7.595537,33 1.642067,33 1.642067,30 3.678954,30 3.678954,10 5.55865,10" style="fill: white" />
    <polygon slic3r:type="contour" points="98.853151,24.258667 99.025791,25.487115 99.14604,26.342714 99.239231,27.005727 99.317576,27.563228 99.388111,28.065097 99.455616,28.545402 99.524103,29.032755 99.597856,29.557508 99.688556,30.20288 99.688557,30.20288 99.787176,30.904562 99.929016,31.913886 100.147351,33.467467 100.24904,34.191 78.592112,37.234683 33.484696,43.574116 32.894413,43.098467 32.705032,42.945864 31.593625,41.960163 31.163078,41.578308 30.735615,41.144691 30.271898,40.674296 30.134115,40.506823 29.711922,39.993652 29.697759,39.971711 29.619278,39.850128 21.328254,41.015355 18.726332,41.381032 18.467315,40.971547 18.460412,40.960636 18.240989,40.476407 18.232445,40.457551 18.107938,40.001328 18.101825,39.978927 18.056941,39.517935 18.054782,39.495751 18.089164,38.996423 18.090365,38.978963 18.219403,38.397696 18.220634,38.392152 18.282184,38.220752 21.118723,37.822104 29.175131,36.689847 29.375802,36.148283 29.45972,35.977679 29.836839,35.210988 30.274644,34.472539 30.647039,33.844408 31.86309,32.035801 87.058015,24.27866 98.62744,22.652684" style="fill: white" />
  </g>
  <g id="layer12" slic3r:z="3.95e-006">
    <polygon slic3r:type="contour" points="6.192703,30 7.768742,30 7.768742,33 1.468861,33 1.468861,30 3.044901,30 3.044901,10 6.192703,10" style="fill: white" />
    <polygon slic3r:type="contour" points="98.655488,22.852254 98.920956,24.741167 98.920957,24.741167 99.06936,25.797084 99.176919,26.562433 99.260279,27.155511 99.33036,27.654208 99.393455,28.103139 99.45384,28.532782 99.515103,28.968729 99.581079,29.438131 99.656816,29.977006 99.75646,30.686053 99.877311,31.545957 100.064627,32.878825 100.267912,34.325288 58.673564,40.170992 33.503567,43.708403 32.369871,42.794875 32.006144,42.501788 31.161608,41.752768 30.626833,41.278479 30.361727,41.009555 29.829656,40.46982 29.798012,40.431356 29.68097,40.289095 21.742284,41.404807 18.788024,41.82 18.45544,41.40676 18.442679,41.390907 18.141267,40.914395 18.123465,40.886255 17.935364,40.471144 17.919545,40.436239 17.813151,40.046383 17.802703,40.008099 17.764406,39.61474 17.760622,39.575887 17.789973,39.149612 17.792452,39.113611 17.902871,38.616212 17.908979,38.588692 18.13486,37.959683 18.137707,37.951752 18.22014,37.779296 20.744777,37.42448 29.113088,36.248392 29.440488,35.582783 29.652428,35.225303 30.165227,34.360348 31.404618,32.517027 31.562986,32.281489 31.843572,31.896926 40.3996,30.694455 98.60792,22.513808" style="fill: white" />
  </g>
  <g id="layer13" slic3r:z="4.25e-006">
    <polygon slic3r:type="contour" points="4.687609,10 6.597328,10 6.597328,30 7.941947,30 7.941947,33 1.295656,33 1.295656,30 2.640276,30 2.640276,10 4.549995,10 4.549995,5 4.687609,5" style="fill: white" />
    <polygon slic3r:type="contour" points="98.747855,23.509469 98.976695,25.137755 99.112919,26.107051 99.207799,26.782151 99.281327,27.305297 99.343151,27.745187 99.3988,28.141184 99.452063,28.520161 99.506104,28.904704 99.564303,29.318753 99.631103,29.794085 99.713679,30.381633 99.8256,31.178032 100.003916,32.446825 100.286791,34.459576 38.755011,43.107304 33.52244,43.842692 31.845329,42.491283 31.307256,42.057708 30.729587,41.545375 30.090592,40.978648 29.987839,40.874415 29.725888,40.608692 23.997975,41.4137 18.83294,42.1396 18.517948,41.812568 18.501305,41.795292 18.096778,41.292656 18.068093,41.25702 17.81522,40.857244 17.78652,40.811876 17.629735,40.465879 17.606647,40.414923 17.518368,40.091444 17.503582,40.037268 17.471868,39.71154 17.466464,39.656024 17.490784,39.302795 17.49454,39.248256 17.58634,38.834723 17.597327,38.785236 17.786173,38.259356 17.799083,38.223404 18.150684,37.487807 18.15184,37.485392 18.173546,37.447772 18.640442,37.382151 29.066495,35.916868 29.683418,34.876287 30.401343,33.808532 30.916355,33.042566 31.82882,31.79196 59.653039,27.881522 98.593168,22.408844" style="fill: white" />
  </g>
  <g id="layer14" slic3r:z="4.55e-006">
    <polygon slic3r:type="contour" points="5.74591,10 6.898835,10 6.898835,30 8.115152,30 8.115152,33 1.122451,33 1.122451,30 2.338769,30 2.338769,10 3.491693,10 3.491693,5 5.74591,5" style="fill: white" />
    <polygon slic3r:type="contour" points="98.840223,24.166685 99.030483,25.520455 99.030482,25.520455 99.156487,26.417019 99.23868,27.001872 99.302383,27.455081 99.355935,27.836167 99.404151,28.179225 99.450295,28.507541 99.497112,28.840678 99.547527,29.199377 99.605399,29.611165 99.676935,30.120169 99.773895,30.810103 99.923136,31.872072 100.204592,33.874672 100.29976,34.551872 86.453512,36.497835 33.535412,43.934988 33.022281,43.546351 32.766327,43.352499 31.320787,42.187687 30.608368,41.613628 30.297569,41.337983 29.761574,40.862608 27.150776,41.229527 18.868624,42.393512 18.679381,42.221579 18.665671,42.209119 18.109161,41.631343 18.068808,41.589448 17.738115,41.178555 17.693507,41.123131 17.489171,40.800095 17.449576,40.737496 17.324109,40.460611 17.293748,40.393607 17.223582,40.1365 17.20446,40.066436 17.179331,39.808339 17.172304,39.736159 17.191595,39.455984 17.196626,39.382903 17.269809,39.05324 17.285673,38.98178 17.437486,38.559027 17.460457,38.495052 17.746174,37.897299 17.766058,37.8557 18.139834,37.207895 26.179657,36.077968 29.032784,35.676988 29.201606,35.392227 29.450341,35.022289 30.269724,33.803639 31.814068,31.686994 78.906487,25.068588 98.578416,22.303878" style="fill: white" />
  </g>
  <g id="layer15" slic3r:z="4.85e-006">
    <polygon slic3r:type="contour" points="6.143351,10 7.120714,10 7.120714,30 8.288357,30 8.288357,33 0.949246,33 0.949246,30 2.11689,30 2.11689,10 3.094252,10 3.094252,5 6.143351,5" style="fill: white" />
    <polygon slic3r:type="contour" points="98.932583,24.823901 99.100248,26.016846 99.200047,26.726987 99.269559,27.221591 99.323431,27.604867 99.36872,27.927148 99.415533,28.260222 99.44852,28.494922 99.488111,28.776651 99.530743,29.080001 99.579687,29.428247 99.632195,29.801863 99.722183,30.442175 99.848399,31.340271 100.086423,33.033853 100.310632,34.629227 67.691079,39.213608 33.546283,44.012344 32.337427,43.096779 31.734446,42.640096 30.796244,41.884096 29.90948,41.169548 29.865552,41.130588 29.789793,41.0634 20.067431,42.429784 18.896844,42.5943 18.192128,41.95404 18.141071,41.907655 17.700374,41.450116 17.636307,41.383599 17.379453,41.064455 17.31892,40.989244 17.163123,40.742943 17.112629,40.663115 17.018482,40.455348 16.980848,40.372292 16.928795,40.181559 16.90534,40.095607 16.886794,39.905144 16.878144,39.816295 16.892405,39.609168 16.898714,39.517548 16.953277,39.271756 16.97402,39.178323 17.0888,38.858695 17.121833,38.766704 17.341662,38.306791 17.380275,38.226004 17.812579,37.476764 17.834983,37.437932 18.112596,37.014084 22.318903,36.422928 29.005545,35.48318 29.623094,34.564715 31.799318,31.58203 98.159928,22.255653 98.563664,22.198914" style="fill: white" />
  </g>
  <g id="layer16" slic3r:z="5.15e-006">
    <polygon slic3r:type="contour" points="6.413114,10 7.288737,10 7.288737,30 8.461562,30 8.461562,33 0.776041,33 0.776041,30 1.948867,30 1.948867,10 2.824489,10 2.824489,5 6.413114,5" style="fill: white" />
    <polygon slic3r:type="contour" points="98.720343,23.313757 99.024951,25.481117 99.162024,26.45639 99.243615,27.036955 99.30044,27.441312 99.344479,27.754651 99.381511,28.018127 99.414839,28.255311 99.446744,28.482304 99.479111,28.712625 99.513967,28.960623 99.553984,29.245328 99.603439,29.597243 99.670479,30.074249 99.773663,30.808473 99.960259,32.136189 100.321504,34.706583 48.928644,41.929375 33.557155,44.0897 31.652576,42.647208 30.702564,41.927692 30.271701,41.580503 29.810206,41.208632 24.408535,41.967792 18.917256,42.739536 18.384819,42.299747 18.330167,42.254607 17.704872,41.686504 17.616471,41.606187 17.291587,41.268887 17.203809,41.177755 17.020791,40.950351 16.944334,40.855356 16.837075,40.685791 16.775684,40.588736 16.712855,40.450083 16.667948,40.350975 16.634009,40.226615 16.606217,40.124776 16.594257,40.001943 16.583984,39.896432 16.593215,39.762352 16.600801,39.652196 16.636747,39.490267 16.662367,39.374867 16.740112,39.158368 16.783207,39.038352 16.937152,38.716283 16.994493,38.596312 17.30788,38.053171 17.366233,37.952036 18.082937,36.857796 18.083676,36.856671 18.089352,36.848688 18.147111,36.840572 28.982304,35.317783 30.773291,32.863092 31.791998,31.529958 49.838455,28.993694 98.556344,22.146842" style="fill: white" />
  </g>
  <g id="layer17" slic3r:z="5.45e-006">
    <polygon slic3r:type="contour" points="6.603084,10 7.425262,10 7.425262,30 8.634768,30 8.634768,33 0.602836,33 0.602836,30 1.812342,30 1.812342,10 2.634519,10 2.634519,5 6.603084,5" style="fill: white" />
    <polygon slic3r:type="contour" points="98.872707,24.397863 98.872706,24.397863 99.117319,26.138333 99.223791,26.895933 99.287176,27.346924 99.331319,27.661031 99.365536,27.904436 99.394296,28.109108 99.426229,28.336308 99.444976,28.469684 99.470119,28.648599 99.497191,28.841247 99.528271,29.062407 99.566695,29.335779 99.618768,29.706322 99.698928,30.276674 99.850079,31.352213 100.286287,34.455967 100.331056,34.7745 97.027095,35.238844 33.5667,44.157616 33.38227,44.022124 33.195557,43.884951 30.967723,42.197635 29.82787,41.334336 28.910065,41.463324 18.934922,42.865244 18.802219,42.762175 18.781042,42.745728 17.766345,41.907595 17.646275,41.808419 17.217617,41.418967 17.091869,41.304719 16.882799,41.087659 16.771311,40.971912 16.662128,40.836251 16.569746,40.721468 16.511026,40.628639 16.438738,40.514355 16.407229,40.444816 16.355049,40.329663 16.339224,40.271676 16.307096,40.153947 16.30172,40.098743 16.289825,39.976564 16.294026,39.91554 16.302888,39.78684 16.320216,39.708783 16.350712,39.571412 16.391426,39.458039 16.444584,39.310003 16.532639,39.12578 16.608712,38.966619 16.803179,38.629584 16.897484,38.466139 17.374263,37.738208 17.454797,37.615252 18.0746,36.743724 24.381321,35.857372 28.96755,35.21282 29.725624,34.173815 31.78484,31.479018 68.263984,26.352209 98.549192,22.095901" style="fill: white" />
  </g>
  <g id="layer18" slic3r:z="5.75e-006">
    <polygon slic3r:type="contour" points="4.907786,5 6.735579,5 6.735579,10 7.517136,10 7.517136,30 8.807973,30 8.807973,33 4.907786,33 4.912231,35.541511 4.911104,36 4.967043,36.652507 4.979799,36.801295 4.989459,36.838116 5.183878,37.579207 5.199665,37.613848 5.51739,38.311024 5.53884,38.342471 5.970597,38.975404 5.997087,39.002743 6.530274,39.552948 6.561031,39.575376 7.180087,40.0268 7.214212,40.043663 7.901072,40.383128 7.93757,40.393939 8.672187,40.611544 8.709994,40.615988 9.470929,40.705379 9.54593,40.70132 10.273988,40.661883 10.739133,40.595708 16.01842,39.860924 16.03906,39.767955 16.042738,39.757708 16.105959,39.581651 16.128129,39.535271 16.22293,39.336928 16.298479,39.205992 16.428734,38.980243 16.665589,38.61862 16.825922,38.373831 17.723613,37.111552 17.79273,37.014363 18.061868,36.653136 19.6525,36.429583 28.954815,35.122232 29.781034,34.040995 31.77768,31.428078 86.632659,23.718715 98.542032,22.044962 99.041047,25.595657 99.209687,26.795549 99.285567,27.335479 99.330744,27.656892 99.362199,27.880749 99.386584,28.054222 99.407079,28.200085 99.425536,28.331396 99.4432,28.457064 99.461119,28.584573 99.472426,28.665027 99.502567,28.879487 99.529951,29.074315 99.567063,29.338395 99.624184,29.744876 99.731911,30.511395 100.042792,32.723388 100.334608,34.799788 78.797408,37.826643 33.570252,44.182904 32.368029,43.299671 31.150918,42.405504 30.282871,41.748063 29.838744,41.411692 22.832475,42.396356 18.945794,42.942596 17.952063,42.170775 17.952063,42.170774 17.771114,42.030236 17.066195,41.447978 17.066195,41.447979 16.962384,41.362232 16.730361,41.151431 16.56727,41.003252 16.474013,40.906431 16.338812,40.766068 16.303466,40.722151 16.19516,40.58758 16.184979,40.571488 16.097851,40.433745 15.633756,40.499771 10.354469,41.234556 10.195403,41.243167 9.452764,41.283388 8.929614,41.221927 8.555905,41.178028 8.050849,41.028428 7.690065,40.921556 7.217842,40.688167 6.880513,40.521452 6.454905,40.211091 6.150877,39.989388 5.784305,39.611119 5.522449,39.340904 5.225612,38.905759 5.01357,38.594916 4.79513,38.115595 4.639091,37.773196 4.505423,37.263687 4.409941,36.899728 4.349606,36.195975 4.332806,35.999999 4.328484,33.762592 4.329817,33 0.429631,33 0.429631,30 1.720468,30 1.720468,10 2.502024,10 2.502024,5 4.329817,5 4.329817,0 4.907786,0" style="fill: white" />
  </g>
  <g id="layer19" slic3r:z="6.05e-006">
    <polygon slic3r:type="contour" points="5.281759,5 6.822128,5 6.822128,10 7.575528,10 7.575528,30 8.981178,30 8.981178,33 5.281759,33 5.282557,33.891295 5.280724,36 5.300345,36.228883 5.344025,36.738383 5.435158,37.085759 5.532083,37.455216 5.681012,37.782011 5.839408,38.129575 6.041788,38.426255 6.257032,38.741796 6.506958,38.999696 6.772767,39.273992 7.062941,39.485591 7.37156,39.71064 7.693517,39.869759 8.035938,40.038992 8.380281,40.140992 8.746509,40.249476 9.103189,40.291371 9.482538,40.335939 10.193532,40.297431 10.222545,40.29586 15.58462,39.538987 15.96568,39.485656 16.197045,39.132412 16.445213,38.783452 16.774087,38.321011 18.054708,36.602196 25.623328,35.538495 28.947657,35.071292 30.666874,32.821427 31.773076,31.395321 38.258583,30.483844 98.537432,22.012208 98.712552,23.258238 99.207436,26.779562 99.207437,26.779562 99.302056,27.452766 99.347343,27.775023 99.374303,27.966859 99.39308,28.10047 99.407632,28.204006 99.419872,28.291066 99.43088,28.369438 99.441423,28.444443 99.45212,28.520548 99.463639,28.602493 99.476855,28.696567 99.4932,28.812852 99.515351,28.970467 99.549448,29.213076 99.613743,29.670575 99.805324,31.033763 100.33816,34.825072 60.567724,40.414443 33.573808,44.208188 31.353789,42.577219 29.84697,41.470216 27.765376,41.762763 27.765376,41.762762 18.95402,43.00112 18.406358,42.588428 18.228979,42.454763 17.063324,41.549412 16.761183,41.314743 16.5294,41.123291 16.278493,40.916048 16.243106,40.883895 16.150344,40.799616 10.78827,41.556484 10.407211,41.60982 9.503787,41.658748 9.440861,41.662156 8.511181,41.552939 8.479705,41.549244 7.582181,41.283388 7.551793,41.274388 6.712616,40.859636 6.684204,40.845592 5.927867,40.294064 5.90226,40.275387 5.250835,39.603172 5.228778,39.580415 4.701279,38.807124 4.683418,38.780943 4.295236,37.929156 4.282092,37.900315 4.044557,36.994884 4.036514,36.964227 4.025769,36.838899 3.953851,36 3.953518,35.596691 3.955845,33 0.256426,33 0.256426,30 1.662075,30 1.662075,10 2.415476,10 2.415476,5 3.955845,5 3.955845,0 5.281759,0" style="fill: white" />
  </g>
  <g id="layer20" slic3r:z="6.35e-006">
    <polygon slic3r:type="contour" points="5.403971,5 6.860544,5 6.860544,10 7.613945,10 7.613945,30 9.154383,30 9.154383,33 5.403971,33 5.405565,35.195364 5.404966,36 5.453576,36.567021 5.466455,36.717236 5.478989,36.765015 5.649126,37.413535 5.669611,37.458488 5.947649,38.068587 5.975486,38.109395 6.353313,38.663268 6.387689,38.69874 6.854277,39.18022 6.894189,39.209328 7.43592,39.604363 7.480205,39.626252 8.08127,39.923319 8.128634,39.937348 8.771493,40.127768 8.820553,40.133532 9.486441,40.211756 9.584695,40.206435 10.205254,40.172828 10.978972,40.06368 15.949107,39.367732 16.713457,38.34184 18.050728,36.573868 20.666218,36.206283 28.943675,35.042964 29.398437,34.456688 31.773076,31.395322 56.426128,27.930563 98.537432,22.012208 99.203103,26.748677 99.367788,27.920513 99.394416,28.109982 99.40912,28.214568 99.417872,28.276828 99.423959,28.320189 99.428688,28.353792 99.432656,28.382046 99.436231,28.407481 99.439655,28.431823 99.443119,28.456523 99.446863,28.483117 99.451152,28.513648 99.456455,28.551387 99.463648,28.60254 99.474711,28.681277 99.495576,28.829756 99.555792,29.258228 100.34172,34.850356 42.29508,43.008276 33.57736,44.233476 30.33955,41.854772 29.850522,41.4955 21.798784,42.627099 18.957572,43.026408 16.895497,41.472519 16.227619,40.969235 16.193876,40.943027 16.167634,40.922648 15.393917,41.031792 10.423783,41.727747 10.284872,41.735267 9.437119,41.78118 8.878197,41.715524 8.45576,41.665896 7.916168,41.506064 7.508341,41.385259 7.003828,41.135912 6.622515,40.947456 6.167805,40.615875 5.824134,40.365264 5.432496,39.961127 5.136496,39.65568 4.819362,39.190776 4.579669,38.839403 4.346294,38.327307 4.169908,37.940264 4.027101,37.395919 3.919168,36.984499 3.851117,36.190726 3.834766,35.999999 3.833105,33.72692 3.833632,33 0.083221,33 0.083221,30 1.623659,30 1.623659,10 2.377059,10 2.377059,5 3.833633,5 3.833633,0 5.403971,0" style="fill: white" />
  </g>
  <g id="layer21" slic3r:z="6.65e-006">
    <polygon slic3r:type="contour" points="5.400632,5 6.856097,5 6.856097,10 7.604069,10 7.604069,30 9.14762,30 9.14762,33 5.400632,33 5.402382,35.374427 5.401916,36 5.450484,36.566535 5.463449,36.717755 5.6173,37.304199 5.646252,37.414559 5.897678,37.966263 5.944993,38.070083 6.286654,38.57094 6.350949,38.665196 6.772876,39.100588 6.852275,39.182523 7.342153,39.539747 7.434341,39.606972 7.977873,39.875607 8.080158,39.92616 8.661483,40.098352 8.770879,40.130756 9.37303,40.201492 9.486345,40.214804 9.713284,40.202515 10.205679,40.175848 11.992764,39.923752 15.949386,39.36972 16.193641,39.041887 16.831072,38.186343 17.310544,37.552447 18.050728,36.573868 26.558219,35.378216 28.943676,35.042964 30.422898,33.135961 31.773076,31.395322 74.593664,25.377281 98.537432,22.012208 99.183951,26.612401 99.355495,27.833011 99.390816,28.084322 99.406703,28.197407 99.416167,28.264723 99.422759,28.311609 99.427863,28.347943 99.432159,28.378493 99.436023,28.405995 99.439719,28.432315 99.443472,28.459022 99.447519,28.487777 99.452152,28.52079 99.457887,28.561595 99.465663,28.616905 99.477632,28.70204 99.500191,28.862583 99.565303,29.325871 100.341576,34.849368 90.869015,36.180648 33.57722,44.232488 32.526159,43.460307 29.850384,41.494512 26.778296,41.926267 18.957434,43.02542 16.305758,41.027235 16.167209,40.919628 14.380125,41.171719 10.423504,41.725756 10.112066,41.742623 9.437182,41.779171 9.100889,41.739668 8.456163,41.663927 8.131501,41.56776 7.509073,41.383391 7.205517,41.233363 6.623556,40.945736 6.349964,40.746231 5.82545,40.363747 5.589809,40.120587 5.138052,39.654412 4.947237,39.374687 4.581419,38.838415 4.441001,38.530299 4.1718,37.939587 4.085876,37.612068 3.921147,36.984156 3.882632,36.534911 3.836775,35.999999 3.835772,34.627779 3.836971,33 0.089983,33 0.089983,30 1.633534,30 1.633534,10 2.381506,10 2.381506,5 3.836971,5 3.836971,0 5.400632,0" style="fill: white" />
  </g>
  <g id="layer22" slic3r:z="6.95000000000001e-006">
    <polygon slic3r:type="contour" points="5.274221,5 6.813926,5 6.813926,10 7.578382,10 7.578382,30 8.974415,30 8.974415,33 5.274221,33 5.274809,33.696084 5.272807,36 5.286679,36.161815 5.336225,36.739728 5.41372,37.035127 5.524626,37.457872 5.65127,37.735767 5.832512,38.133464 6.004609,38.385751 6.250898,38.746796 6.463426,38.966112 6.767573,39.279964 7.014328,39.459903 7.36746,39.717412 7.641241,39.852719 8.033049,40.046363 8.325868,40.1331 8.744918,40.257228 9.048228,40.29286 9.48229,40.343852 10.097574,40.310527 10.223647,40.3037 15.138179,39.61 15.965166,39.494309 16.139368,39.22834 16.221597,39.102796 16.425356,38.816283 16.813857,38.269996 17.03338,37.975359 18.054987,36.604184 21.555863,36.112168 21.555863,36.112169 28.947936,35.07328 29.318376,34.588503 30.787854,32.665461 31.447357,31.815236 31.773076,31.395322 92.761215,22.824002 98.537432,22.012208 98.6934,23.121964 99.20118,26.735017 99.298448,27.427106 99.344935,27.757861 99.3726,27.954756 99.391879,28.091891 99.406816,28.198158 99.419367,28.287513 99.430672,28.367954 99.441495,28.444935 99.452471,28.523047 99.464296,28.607156 99.477863,28.703709 99.49464,28.82306 99.517368,28.984834 99.552367,29.233839 99.618359,29.703403 99.808799,31.058451 100.338024,34.824084 72.632232,38.717879 33.573668,44.2072 30.499469,41.948699 29.84683,41.469228 20.861442,42.732043 18.95388,43.000132 18.307118,42.512764 18.009211,42.281383 16.800614,41.342676 16.416437,41.025351 16.305194,40.933468 16.149241,40.791776 11.23471,41.485471 10.406028,41.601399 9.584182,41.645912 9.441128,41.65366 8.552019,41.549208 8.481415,41.540916 7.623057,41.286659 7.554895,41.266472 6.752339,40.869819 6.688608,40.83832 5.965278,40.31086 5.907838,40.268972 5.284841,39.626092 5.235367,39.575039 4.730887,38.835496 4.690827,38.776768 4.319583,37.962151 4.290103,37.897464 4.062932,37.031543 4.044893,36.962779 4.020303,36.675955 3.962354,36 3.961565,35.147763 3.963382,33 0.263188,33 0.263188,30 1.659222,30 1.659222,10 2.423678,10 2.423678,5 3.963382,5 3.963382,0 5.274221,0" style="fill: white" />
  </g>
  <g id="layer23" slic3r:z="7.25000000000001e-006">
    <polygon slic3r:type="contour" points="4.872262,5 6.731197,5 6.731197,10 7.513728,10 7.513728,30 8.80121,30 8.80121,33 4.872262,33 4.875994,34.725156 4.872857,36 4.910289,36.436631 4.942111,36.807803 5.076449,37.319875 5.147849,37.592035 5.367386,38.073763 5.48407,38.3298 5.782398,38.767135 5.940959,38.999576 6.309372,39.379751 6.505181,39.581811 6.932929,39.893728 7.160274,40.059511 7.634871,40.294067 7.887117,40.418736 8.394713,40.569096 8.664496,40.649007 9.190279,40.710776 9.469729,40.743608 10.024102,40.71358 10.279309,40.69976 13.717462,40.210604 16.022477,39.889788 16.040085,39.810469 16.040086,39.810469 16.051228,39.760279 16.10619,39.607219 16.119179,39.571048 16.197711,39.406743 16.237992,39.322472 16.340867,39.144176 16.447035,38.960175 16.57298,38.767887 16.850474,38.344215 16.985631,38.154168 17.8325,36.963347 17.873117,36.908832 18.062146,36.655124 27.597853,35.314968 28.955096,35.12422 29.947976,33.824883 31.777959,31.430066 44.350127,29.663162 98.542312,22.046952 99.034791,25.551111 99.212116,26.812844 99.212117,26.812844 99.28316,27.318318 99.329039,27.644789 99.360999,27.872171 99.38576,28.048374 99.406583,28.196533 99.425328,28.32991 99.443271,28.457555 99.461471,28.587073 99.481072,28.726532 99.503568,28.88663 99.531384,29.084524 99.575116,29.395715 99.627103,29.765637 99.736527,30.544221 100.052296,32.791032 100.334464,34.7988 54.395444,41.255107 33.570116,44.181916 31.230745,42.463267 29.838318,41.408672 25.713928,41.988319 18.94537,42.939576 17.810544,42.058168 17.608293,41.891115 16.989085,41.379655 16.784118,41.193428 16.58775,41.015023 16.423079,40.844059 16.355698,40.774104 16.229725,40.617583 16.209784,40.592808 16.117265,40.44654 16.114947,40.442879 16.093579,40.39572 12.655425,40.884872 10.350412,41.205688 9.777921,41.236695 9.45368,41.254256 9.290515,41.235088 8.561767,41.149476 8.404244,41.102815 7.700699,40.89442 7.553418,40.821627 6.895613,40.496516 6.76287,40.399719 6.17,39.967392 6.055669,39.849411 5.545037,39.32248 5.452456,39.186763 5.038963,38.580607 4.970834,38.431111 4.66655,37.763416 4.62486,37.604507 4.438663,36.894763 4.420067,36.677859 4.361955,36 4.360491,35.242543 4.365341,33 0.436393,33 0.436393,30 1.723877,30 1.723877,10 2.506407,10 2.506407,5 4.365341,5 4.365341,0 4.872262,0" style="fill: white" />
  </g>
  <g id="layer24" slic3r:z="7.55000000000001e-006">
    <polygon slic3r:type="contour" points="6.601472,10 7.416022,10 7.416022,30 8.628005,30 8.628005,33 0.609598,33 0.609598,30 1.821582,30 1.821582,10 2.636132,10 2.636132,5 6.601472,5" style="fill: white" />
    <polygon slic3r:type="contour" points="98.874439,24.410161 99.113711,26.112673 99.221384,26.878774 99.285471,27.334821 99.33012,27.652452 99.364711,27.898589 99.393799,28.105553 99.419984,28.291868 99.437052,28.413332 99.470464,28.6511 99.497848,28.845908 99.529279,29.069549 99.568127,29.345987 99.620792,29.720688 99.70184,30.297438 99.854695,31.385041 100.295792,34.523612 100.330912,34.773516 36.158659,43.792336 33.56656,44.156632 33.275384,43.942712 29.827445,41.331315 19.6146,42.766643 18.934498,42.862223 18.820472,42.77366 18.800149,42.756875 17.672978,41.82584 17.541307,41.706211 17.112351,41.316487 16.985728,41.185028 16.788195,40.979947 16.68447,40.851072 16.58437,40.726695 16.505533,40.602059 16.451893,40.517259 16.396833,40.395744 16.367266,40.330496 16.334487,40.21038 16.318773,40.152807 16.30704,40.032299 16.30131,39.973436 16.309755,39.85076 16.314519,39.781583 16.342606,39.655068 16.362881,39.563736 16.410223,39.431896 16.457805,39.299395 16.523758,39.161408 16.623774,38.952164 16.706167,38.809368 16.915786,38.446071 17.006591,38.307432 17.479351,37.585636 17.545907,37.492048 18.075176,36.747824 22.905374,36.068983 28.968125,35.21692 29.318731,34.736384 29.766528,34.122643 30.577578,33.061259 31.785118,31.481006 62.78998,27.123557 98.549471,22.097891" style="fill: white" />
  </g>
  <g id="layer25" slic3r:z="7.85000000000001e-006">
    <polygon slic3r:type="contour" points="6.412014,10 7.29435,10 7.29435,30 8.4548,30 8.4548,33 0.782803,33 0.782803,30 1.943254,30 1.943254,10 2.82559,10 2.82559,5 6.412014,5" style="fill: white" />
    <polygon slic3r:type="contour" points="98.714079,23.269211 99.021343,25.455457 99.159607,26.439229 99.241911,27.024853 99.299239,27.432731 99.343664,27.748804 99.381007,28.014575 99.414632,28.253826 99.446815,28.482795 99.479464,28.715126 99.514623,28.965285 99.554984,29.25247 99.60488,29.607452 99.672495,30.088613 99.776583,30.829235 99.972863,32.225859 100.32108,34.703564 84.216656,36.966891 33.556732,44.08668 30.742849,41.955503 29.809468,41.203391 24.065746,42.010615 18.916519,42.734296 18.35687,42.272028 18.298497,42.218995 17.636952,41.617956 17.548376,41.525996 17.220695,41.185791 17.139213,41.084555 16.958958,40.860584 16.893801,40.757575 16.78884,40.591639 16.742127,40.488551 16.680165,40.351808 16.65198,40.248528 16.617896,40.123639 16.607754,40.019479 16.595469,39.8933 16.602757,39.787447 16.612432,39.64694 16.636451,39.538747 16.674534,39.367192 16.714258,39.256571 16.79643,39.027747 16.849807,38.916072 17.009556,38.581855 17.071465,38.474556 17.384536,37.931967 17.440201,37.846976 18.090182,36.854603 18.291292,36.826339 28.983136,35.323699 29.001707,35.296076 29.787073,34.219668 30.814196,32.811917 31.20718,32.297637 31.792277,31.531946 81.229824,24.583951 98.556624,22.14883" style="fill: white" />
  </g>
  <g id="layer26" slic3r:z="8.15000000000001e-006">
    <polygon slic3r:type="contour" points="6.136709,10 7.109633,10 7.109633,30 8.281595,30 8.281595,33 0.956008,33 0.956008,30 2.127971,30 2.127971,10 3.100894,10 3.100894,5 6.136709,5" style="fill: white" />
    <polygon slic3r:type="contour" points="98.928983,24.798243 99.097831,25.999685 99.198344,26.714886 99.26836,27.213014 99.328644,27.641975 99.368223,27.923595 99.409287,28.215783 99.448591,28.495415 99.488464,28.779152 99.531399,29.084661 99.580696,29.435388 99.641623,29.868913 99.724207,30.456539 99.851319,31.361033 100.091031,33.066677 100.310207,34.626208 65.432523,39.527944 33.545857,44.009324 31.77473,42.667908 30.194087,41.394235 29.936764,41.186884 29.788694,41.05556 28.340468,41.259095 18.895743,42.586464 18.161551,41.919423 18.111024,41.866964 17.653193,41.391639 17.593958,41.31804 17.333543,40.994471 17.282071,40.913095 17.125784,40.66602 17.087421,40.581359 16.993064,40.373124 16.969471,40.286675 16.917018,40.094467 16.908468,40.00666 16.889628,39.813163 16.899429,39.670808 16.910344,39.512291 16.930293,39.422432 16.986188,39.170651 17.018291,39.081248 17.135053,38.756096 17.175853,38.670736 17.395338,38.211547 17.479947,38.064909 17.479946,38.064909 17.853284,37.417863 17.873811,37.38652 18.113506,37.020564 25.063624,36.043787 29.006457,35.48966 29.364071,34.957789 29.648338,34.535003 30.255413,33.702956 31.799894,31.586128 32.955887,31.423662 98.56424,22.203012" style="fill: white" />
  </g>
  <g id="layer27" slic3r:z="8.45000000000001e-006">
    <polygon slic3r:type="contour" points="5.714577,10 6.879452,10 6.879452,30 8.10839,30 8.10839,33 1.129214,33 1.129214,30 2.358152,30 2.358152,10 3.523027,10 3.523027,5 5.714577,5" style="fill: white" />
    <polygon slic3r:type="contour" points="98.836615,24.141025 99.036063,25.560139 99.154783,26.404917 99.237479,26.993293 99.301559,27.449233 99.355439,27.832615 99.403944,28.17774 99.45036,28.508036 99.497463,28.843177 99.548184,29.204038 99.606399,29.618307 99.678367,30.130379 99.775911,30.824467 99.926056,31.892834 100.209199,33.907499 100.299336,34.548851 46.648323,42.089008 33.534988,43.931967 32.806614,43.380312 32.156578,42.85652 30.635653,41.630963 29.760472,40.854768 21.200663,42.057772 18.867522,42.385672 18.686154,42.220892 18.673672,42.207932 18.085693,41.597483 18.048703,41.551523 17.708132,41.12836 17.67034,41.068612 17.46273,40.7404 17.432718,40.674164 17.305963,40.394439 17.286966,40.324824 17.216139,40.065299 17.209181,39.993839 17.183787,39.733028 17.18876,39.660819 17.208258,39.377648 17.224138,39.306115 17.297842,38.974108 17.322326,38.905923 17.473679,38.484448 17.501904,38.425399 17.78112,37.841239 17.802066,37.804939 18.14115,37.21726 21.233085,36.782717 29.034099,35.686352 29.160479,35.47318 29.220416,35.372087 29.763894,34.563787 30.294969,33.773928 30.723755,33.186238 31.814644,31.691093 52.238863,28.820656 98.578992,22.307976" style="fill: white" />
  </g>
  <g id="layer28" slic3r:z="8.75000000000001e-006">
    <polygon slic3r:type="contour" points="6.583169,30 7.935185,30 7.935185,33 1.302419,33 1.302419,30 2.654434,30 2.654434,10 6.583169,10" style="fill: white" />
    <polygon slic3r:type="contour" points="98.744247,23.483809 98.974287,25.120595 99.111215,26.094949 99.206599,26.773573 99.280512,27.29945 99.342648,27.741636 99.398591,28.139697 99.452136,28.520656 99.506455,28.907203 99.564959,29.323415 99.632111,29.801227 99.715112,30.391842 99.827623,31.192395 100.000791,32.424631 100.286056,34.454332 94.27512,35.299115 33.521704,43.837447 31.334542,42.075044 30.422027,41.265735 30.111528,40.990356 29.724326,40.597575 24.240652,41.368259 18.831377,42.128484 18.518192,41.803328 18.503447,41.785007 18.082717,41.262247 18.05861,41.224132 17.799676,40.81478 17.778014,40.766972 17.618864,40.415756 17.604459,40.362971 17.515262,40.036128 17.509895,39.981019 17.477948,39.652895 17.481761,39.597508 17.506172,39.242999 17.517981,39.189796 17.609496,38.777564 17.62636,38.730595 17.812303,38.212796 17.827951,38.180064 18.166902,37.470932 18.167363,37.470132 18.174862,37.457135 28.896587,35.950296 29.067812,35.926232 29.498145,35.200376 29.702228,34.856148 30.201157,34.114101 30.941602,33.012851 31.192097,32.669524 31.829396,31.796057 71.521808,26.217654 98.593744,22.412941" style="fill: white" />
  </g>
  <g id="layer29" slic3r:z="9.05000000000001e-006">
    <polygon slic3r:type="contour" points="6.172834,30 7.76198,30 7.76198,33 1.475624,33 1.475624,30 3.06477,30 3.06477,10 6.172834,10" style="fill: white" />
    <polygon slic3r:type="contour" points="98.651879,22.826595 98.912511,24.681051 99.067655,25.784981 99.175719,26.553853 99.259455,27.149663 99.329863,27.650655 99.393248,28.101656 99.453911,28.533275 99.515456,28.97123 99.581736,29.442792 99.657815,29.984147 99.751864,30.653306 99.879327,31.560323 100.075535,32.956431 100.267176,34.320048 74.318808,37.966847 33.502832,43.70316 32.03343,42.519123 31.420375,41.975403 30.647772,41.290184 29.926389,40.558415 29.846922,40.477804 29.678766,40.273412 26.294688,40.749012 18.78582,41.804319 18.457306,41.396136 18.446878,41.379648 18.136622,40.88916 18.123307,40.859779 17.931764,40.437072 17.921951,40.401119 17.814384,40.006959 17.810609,39.968199 17.772108,39.572759 17.774761,39.534196 17.804084,39.108356 17.811825,39.07348 17.921148,38.58102 17.930393,38.555272 18.15093,37.941147 18.153999,37.934724 18.221992,37.792476 26.938495,36.567448 29.11494,36.261572 29.35843,35.766555 29.455963,35.568268 29.835811,34.927568 30.184038,34.340207 30.586148,33.742161 30.586147,33.742161 31.588232,32.251776 31.66044,32.152807 31.844148,31.901024 90.804752,23.614651 98.608496,22.517905" style="fill: white" />
  </g>
  <g id="layer30" slic3r:z="9.35000000000001e-006">
    <polygon slic3r:type="contour" points="5.508729,30 7.588775,30 7.588775,33 1.648829,33 1.648829,30 3.728874,30 3.728874,10 5.508729,10" style="fill: white" />
    <polygon slic3r:type="contour" points="98.850735,24.241507 99.024088,25.475014 99.144839,26.334135 99.238408,26.99988 99.317072,27.559676 99.387896,28.063612 99.455679,28.545895 99.524455,29.035255 99.598511,29.562167 99.683527,30.167067 99.780619,30.857925 99.931039,31.928249 100.150271,33.488229 100.248304,34.18576 54.362507,40.634584 33.48396,43.568872 32.732318,42.963204 32.418721,42.685075 31.184014,41.590016 30.604305,41.001959 30.289163,40.682279 29.759604,40.038604 29.726882,39.998832 29.616044,39.827124 26.503151,40.264612 18.723098,41.358028 18.473567,40.963539 18.468603,40.952583 18.244664,40.458384 18.239445,40.439267 18.113504,39.977788 18.111321,39.955379 18.066266,39.492624 18.067764,39.470883 18.101995,38.973708 18.105669,38.957164 18.232802,38.384475 18.234427,38.379948 18.284832,38.239592 26.779996,37.045671 29.177779,36.708688 29.350853,36.241596 29.389378,36.137627 29.682732,35.541239 29.852316,35.196471 30.173475,34.654764 30.66585,33.824263 30.918868,33.447959 31.864,32.04228 44.245896,30.302117 98.628352,22.659162" style="fill: white" />
  </g>
  <g id="layer31" slic3r:z="9.65000000000001e-006">
    <polygon slic3r:type="contour" points="7.41557,33 1.822034,33 1.822034,30 7.41557,30" style="fill: white" />
    <polygon slic3r:type="contour" points="98.788959,23.801961 98.980527,25.165045 99.113959,26.114415 99.217351,26.850095 99.304287,27.468695 99.382551,28.025569 99.457455,28.558513 99.525466,29.042437 99.615287,29.681545 99.709231,30.349985 99.825351,31.176233 99.982743,32.296177 100.225008,34.020028 100.229424,34.051472 34.4062,43.302319 33.465085,43.434584 33.431206,43.40728 33.41707,43.394744 31.720257,41.889847 31.282219,41.445499 30.731405,40.886752 30.280358,40.338508 30.110055,40.131511 29.741076,39.559884 29.706655,39.506563 29.51153,39.083456 21.351662,40.230251 18.618582,40.61436 18.557563,40.479699 18.55694,40.477416 18.412626,39.94862 18.412035,39.942559 18.360426,39.412488 18.360764,39.407571 18.389771,38.986292 21.111027,38.603844 29.282722,37.455392 29.292843,37.318364 29.293604,37.308056 29.422657,36.748072 29.443846,36.656123 29.647613,36.1062 29.7371,35.864699 29.993322,35.343799 30.248667,34.82468 30.511142,34.381955 31.147661,33.308326 31.303857,33.076018 31.887324,32.20824 65.022519,27.551393 98.651672,22.825122" style="fill: white" />
  </g>
  <g id="layer32" slic3r:z="9.95000000000001e-006">
    <polygon slic3r:type="contour" points="7.242364,33 1.995239,33 1.995239,30 7.242364,30" style="fill: white" />
    <polygon slic3r:type="contour" points="98.727191,23.362417 98.936959,24.855077 99.08308,25.894696 99.196303,26.700309 99.291503,27.377717 99.377207,27.987527 99.459232,28.571134 99.542447,29.163307 99.632063,29.800921 99.734943,30.532905 99.862103,31.437697 100.034455,32.664103 100.201648,33.853816 79.308744,36.790123 33.437308,43.236932 32.2565,42.189676 31.960135,41.889043 31.173648,41.091228 30.801109,40.638411 30.493232,40.264192 30.170777,39.764647 30.051482,39.579836 29.814823,39.066667 29.769876,38.969204 29.627361,38.453271 29.609306,38.387904 29.559696,37.872792 29.552756,37.800715 29.590581,37.288552 29.599166,37.172335 29.715563,36.667264 29.763689,36.458428 29.944374,35.970803 30.084821,35.591772 30.303912,35.146359 30.645017,34.452884 30.848805,34.109148 31.629472,32.792383 31.688849,32.704076 31.910648,32.374198 85.912831,24.784688 98.675,22.991081" style="fill: white" />
  </g>
  <g id="layer33" slic3r:z="1.025e-005">
    <polygon slic3r:type="contour" points="7.069159,33 2.168444,33 2.168444,30 7.069159,30" style="fill: white" />
    <polygon slic3r:type="contour" points="98.8934,24.54511 99.052199,25.674975 99.175256,26.550526 99.278711,27.286737 99.371855,27.949483 99.460999,28.583753 99.551447,29.227333 99.648848,29.9203 99.760647,30.715825 99.898847,31.699161 100.08616,33.032032 100.173432,33.653024 57.35254,39.671111 33.409088,43.036139 32.792743,42.489507 32.638049,42.332583 31.61589,41.295704 31.321861,40.938315 30.876408,40.396872 30.600481,39.969411 30.39631,39.653107 30.187219,39.199719 30.090258,38.989468 29.962494,38.52694 29.915748,38.357703 29.871037,37.893455 29.854288,37.719544 29.888322,37.258743 29.904728,37.036616 29.999552,36.625149 30.083533,36.260736 30.241133,35.835408 30.432541,35.31884 30.600788,34.976795 31.04137,34.081091 31.186471,33.836344 31.937989,32.568744 40.968424,31.299599 98.702344,23.185628" style="fill: white" />
  </g>
  <g id="layer34" slic3r:z="1.055e-005">
    <polygon slic3r:type="contour" points="98.849831,24.235141 99.02132,25.455256 99.154199,26.400741 99.271964,27.238713 99.271965,27.238713 99.366511,27.911441 99.462776,28.596374 99.560447,29.291359 99.665624,30.039676 99.786359,30.898745 99.935591,31.960625 100.137872,33.399958 100.145216,33.452232 35.35338,42.558132 33.380868,42.835352 33.328986,42.789336 33.315964,42.776128 32.058131,41.500179 31.842616,41.23822 31.259582,40.529556 31.030185,40.174171 30.741138,39.72638 30.559613,39.332767 30.410637,39.009731 30.287514,38.563994 30.22219,38.327504 30.182377,37.914119 30.155822,37.638372 30.186061,37.228932 30.21029,36.900896 30.301376,36.505651 30.403377,36.06304 30.537893,35.700012 30.780264,35.045912 30.925092,34.751479 31.437721,33.709296 31.524136,33.563535 31.971701,32.80862 64.352679,28.25777 98.736048,23.425504" style="fill: white" />
  </g>
  <g id="layer35" slic3r:z="1.085e-005">
    <polygon slic3r:type="contour" points="98.806271,23.925173 98.990439,25.235537 99.133151,26.250955 99.253143,27.104777 99.361167,27.873399 99.464552,28.608994 99.56944,29.355386 99.6824,30.159052 99.812063,31.081665 99.972335,32.222089 100.106288,33.175218 77.25488,36.386771 33.341936,42.558336 32.500374,41.704652 32.363367,41.538123 31.642757,40.662235 31.459887,40.378935 31.085966,39.799656 30.932009,39.465815 30.731019,39.029995 30.632759,38.674275 30.528632,38.297308 30.493717,37.934783 30.457354,37.557199 30.483802,37.199123 30.515852,36.765171 30.594284,36.424843 30.723222,35.865343 30.834654,35.564615 31.127983,34.772984 31.221968,34.581915 31.834073,33.337502 31.861801,33.290732 32.005416,33.048496 87.736935,25.215942 98.76976,23.66538" style="fill: white" />
  </g>
  <g id="layer36" slic3r:z="1.115e-005">
    <polygon slic3r:type="contour" points="98.959559,25.015817 99.112104,26.101172 99.240351,27.013797 99.355816,27.835358 99.466327,28.621613 99.57844,29.419412 99.699175,30.278427 99.837775,31.264583 100.009087,32.483553 100.066272,32.890492 52.007568,39.6447 33.30192,42.273607 32.942615,41.909127 32.884119,41.838027 32.025932,40.794916 31.889591,40.583695 31.430791,39.872927 31.304404,39.598868 31.051399,39.050259 30.967893,38.747943 30.835074,38.267108 30.805059,37.955443 30.758888,37.476028 30.778127,37.21554 30.778128,37.21554 30.821414,36.629451 30.88719,36.344039 31.043066,35.667651 31.131413,35.42922 31.475705,34.500056 31.546272,34.356599 32.046368,33.339896 46.552195,31.301234 98.810711,23.95678" style="fill: white" />
  </g>
  <g id="layer37" slic3r:z="1.145e-005">
    <polygon slic3r:type="contour" points="98.928679,24.796097 99.091047,25.951385 99.227567,26.922817 99.350471,27.797313 99.468095,28.634233 99.58744,29.483438 99.715951,30.397805 99.863479,31.447503 100.022072,32.575946 92.232591,33.670684 33.257712,41.959064 32.409108,40.927596 32.319295,40.788459 31.77562,39.946199 31.676799,39.731915 31.371782,39.07052 31.303025,38.821611 31.141516,38.236908 31.116399,37.976107 31.060422,37.394855 31.079282,37.139503 31.126976,36.493732 31.171178,36.301925 31.362909,35.469956 31.428172,35.293823 31.823427,34.227128 31.856859,34.159156 32.093806,33.677444 74.098136,27.774119 98.858152,24.294328" style="fill: white" />
  </g>
  <g id="layer38" slic3r:z="1.175e-005">
    <polygon slic3r:type="contour" points="99.069999,25.801601 99.214783,26.831839 99.345127,27.759271 99.469871,28.646853 99.59644,29.547464 99.732727,30.517181 99.889191,31.630423 99.965616,32.174264 61.623588,37.562883 33.20126,41.55738 32.792283,41.060279 32.748998,40.993224 32.120448,40.019472 32.049193,39.864963 31.692163,39.090783 31.638159,38.895279 31.447958,38.206708 31.433006,38.051455 31.361954,37.313684 31.377019,37.109696 31.432538,36.358011 31.473001,36.182424 31.682754,35.272259 31.724931,35.158428 32.143272,34.029428 35.594,33.544461 98.907624,24.64631" style="fill: white" />
  </g>
  <g id="layer39" slic3r:z="1.205e-005">
    <polygon slic3r:type="contour" points="99.048952,25.651816 99.201992,26.74086 99.339775,27.721229 99.471648,28.659474 99.605431,29.611489 99.749511,30.636559 99.907327,31.759508 97.093711,32.154936 33.142968,41.142624 32.465276,40.092744 32.421587,39.998015 32.012544,39.111048 31.973291,38.968947 31.754399,38.176511 31.739079,38.017435 31.663488,37.232512 31.67476,37.079883 31.7381,36.222288 31.765909,36.10162 32.002596,35.074568 32.021691,35.023032 32.211082,34.511916 70.31232,29.157137 98.97544,25.128796" style="fill: white" />
  </g>
  <g id="layer40" slic3r:z="1.235e-005">
    <polygon slic3r:type="contour" points="99.189208,26.64988 99.334431,27.683185 99.473415,28.672093 99.614432,29.675516 99.766287,30.755935 99.82452,31.170284 56.656808,37.237111 33.06016,40.553404 32.810103,40.166019 32.793984,40.131064 32.332926,39.131311 32.308425,39.042615 32.060844,38.146312 32.055688,38.092779 31.96502,37.151344 31.9725,37.050075 32.043662,36.086568 32.058816,36.020811 32.285128,35.03878 40.704532,33.855511 99.049488,25.655662" style="fill: white" />
  </g>
  <g id="layer41" slic3r:z="1.265e-005">
    <polygon slic3r:type="contour" points="99.176423,26.558899 99.32908,27.645144 99.475191,28.684713 99.623431,29.739541 99.71948,30.42291 73.912596,34.049828 32.955124,39.806031 32.653308,39.151576 32.643557,39.116283 32.367286,38.116112 32.361761,38.058759 32.266554,37.070171 32.270239,37.020264 32.349223,35.950848 32.351721,35.940004 32.389036,35.778092 89.533711,27.746934 99.153384,26.394978" style="fill: white" />
  </g>
  <g id="layer42" slic3r:z="1.295e-005">
    <polygon slic3r:type="contour" points="99.476968,28.697334 99.5188,28.995028 51.008851,35.812656 32.75445,38.378144 32.673728,38.085916 32.673101,38.079423 32.5874,37.189536 44.721184,35.484243 99.351752,27.806415" style="fill: white" />
  </g>
</svg>
