<?xml version="1.0" encoding="UTF-8" standalone="yes"?>
<!DOCTYPE svg PUBLIC "-//W3C//DTD SVG 1.0//EN" "http://www.w3.org/TR/2001/REC-SVG-20010904/DTD/svg10.dtd">
<svg width="40" height="30.000003" xmlns="http://www.w3.org/2000/svg" xmlns:svg="http://www.w3.org/2000/svg" xmlns:xlink="http://www.w3.org/1999/xlink" xmlns:slic3r="http://slic3r.org/namespaces/slic3r">
  <!-- 
  Generated using Slic3r 1.2.9
  http://slic3r.org/
   -->
  <g id="layer0" slic3r:z="1.75e-007">
    <polygon slic3r:type="contour" points="40,30.000004 0,30.000004 0,0 40,0" style="fill: white" />
  </g>
  <g id="layer1" slic3r:z="4e-007">
    <polygon slic3r:type="contour" points="40,30.000004 0,30.000004 0,0 40,0" style="fill: white" />
  </g>
  <g id="layer2" slic3r:z="5e-007">
    <polygon slic3r:type="contour" points="40,30.000004 0,30.000004 0,0 40,0" style="fill: white" />
  </g>
  <g id="layer3" slic3r:z="6e-007">
    <polygon slic3r:type="contour" points="40,30.000004 0,30.000004 0,0 40,0" style="fill: white" />
  </g>
  <g id="layer4" slic3r:z="7e-007">
    <polygon slic3r:type="contour" points="40,30.000004 0,30.000004 0,0 40,0" style="fill: white" />
  </g>
  <g id="layer5" slic3r:z="8e-007">
    <polygon slic3r:type="contour" points="40,30.000004 0,30.000004 0,0 40,0" style="fill: white" />
  </g>
  <g id="layer6" slic3r:z="9e-007">
    <polygon slic3r:type="contour" points="40,30.000004 0,30.000004 0,0 40,0" style="fill: white" />
  </g>
  <g id="layer7" slic3r:z="1e-006">
    <polygon slic3r:type="contour" points="40,30.000004 0,30.000004 0,0 40,0" style="fill: white" />
  </g>
  <g id="layer8" slic3r:z="1.1e-006">
    <polygon slic3r:type="contour" points="40,30.000004 0,30.000004 0,0 40,0" style="fill: white" />
  </g>
  <g id="layer9" slic3r:z="1.2e-006">
    <polygon slic3r:type="contour" points="40,30.000004 0,30.000004 0,0 40,0" style="fill: white" />
  </g>
  <g id="layer10" slic3r:z="1.3e-006">
    <polygon slic3r:type="contour" points="40,30.000004 0,30.000004 0,0 40,0" style="fill: white" />
  </g>
  <g id="layer11" slic3r:z="1.4e-006">
    <polygon slic3r:type="contour" points="40,30.000004 0,30.000004 0,0 40,0" style="fill: white" />
  </g>
  <g id="layer12" slic3r:z="1.5e-006">
    <polygon slic3r:type="contour" points="40,30.000004 0,30.000004 0,0 40,0" style="fill: white" />
  </g>
  <g id="layer13" slic3r:z="1.6e-006">
    <polygon slic3r:type="contour" points="40,30.000004 0,30.000004 0,0 40,0" style="fill: white" />
  </g>
  <g id="layer14" slic3r:z="1.7e-006">
    <polygon slic3r:type="contour" points="40,30.000004 0,30.000004 0,0 40,0" style="fill: white" />
  </g>
  <g id="layer15" slic3r:z="1.8e-006">
    <polygon slic3r:type="contour" points="40,30.000004 0,30.000004 0,0 40,0" style="fill: white" />
  </g>
  <g id="layer16" slic3r:z="1.9e-006">
    <polygon slic3r:type="contour" points="40,30.000004 0,30.000004 0,0 40,0" style="fill: white" />
  </g>
  <g id="layer17" slic3r:z="2e-006">
    <polygon slic3r:type="contour" points="40,30.000004 0,30.000004 0,0 40,0" style="fill: white" />
  </g>
  <g id="layer18" slic3r:z="2.1e-006">
    <polygon slic3r:type="contour" points="40,30.000004 0,30.000004 0,0 40,0" style="fill: white" />
  </g>
  <g id="layer19" slic3r:z="2.2e-006">
    <polygon slic3r:type="contour" points="40,30.000004 0,30.000004 0,0 40,0" style="fill: white" />
  </g>
  <g id="layer20" slic3r:z="2.3e-006">
    <polygon slic3r:type="contour" points="40,30.000004 0,30.000004 0,0 40,0" style="fill: white" />
  </g>
  <g id="layer21" slic3r:z="2.4e-006">
    <polygon slic3r:type="contour" points="40,30.000004 0,30.000004 0,0 40,0" style="fill: white" />
  </g>
  <g id="layer22" slic3r:z="2.5e-006">
    <polygon slic3r:type="contour" points="40,30.000004 0,30.000004 0,0 40,0" style="fill: white" />
  </g>
  <g id="layer23" slic3r:z="2.6e-006">
    <polygon slic3r:type="contour" points="40,30.000004 0,30.000004 0,0 40,0" style="fill: white" />
    <polygon slic3r:type="hole" points="2.272649,13.71376 3.64374,15.694228 3.70087,15.776749 3.70087,17.292862 4.174509,17.292862 4.174509,15.776749 5.498723,13.79628 5.553899,13.71376 4.97773,13.71376 4.300382,14.749697 4.272158,14.792862 4.26707,14.800898 4.095196,15.076684 4.082907,15.096713 3.920113,15.37796 3.90839,15.39833 3.903684,15.390344 3.728111,15.096937 3.715099,15.075477 3.531301,14.787147 3.51777,14.76601 2.852143,13.755849 2.824409,13.71376" style="fill: black" />
    <polygon slic3r:type="hole" points="19.0585,1.705268 20.328304,3.416251 20.328303,3.416251 20.44278,3.570499 19.222079,5.28437 19.786042,5.28437 20.409484,4.403119 20.435459,4.366401 20.440172,4.35972 20.577729,4.160844 20.587207,4.146807 20.714684,3.941387 20.723541,3.926948 20.726966,3.932312 20.852257,4.123313 20.861562,4.137159 20.996809,4.321249 21.006739,4.334658 21.698151,5.246381 21.72696,5.28437 22.242099,5.28437 21.094478,3.744558 21.094479,3.744558 20.98477,3.597358 22.339749,1.705268 21.75381,1.705268 20.888973,2.931046 20.852939,2.98212 20.850874,2.985169 20.707123,3.205291 20.69669,3.221381 20.693985,3.216967 20.53676,2.969901 20.525792,2.952831 19.663287,1.75517 19.62735,1.705268" style="fill: black" />
  </g>
  <g id="layer24" slic3r:z="2.7e-006">
    <polygon slic3r:type="contour" points="40,30.000004 0,30.000004 0,0 40,0" style="fill: white" />
    <polygon slic3r:type="hole" points="2.272649,13.71376 3.586611,15.611709 3.70087,15.776749 3.70087,17.292862 4.174509,17.292862 4.174509,15.776749 5.443547,13.878799 5.5539,13.71376 4.97773,13.71376 4.328605,14.706533 4.272158,14.792862 4.261981,14.808936 4.105054,15.060738 4.080474,15.100799 3.931836,15.357589 3.90839,15.398331 3.898977,15.382355 3.738673,15.114463 3.712648,15.071542 3.544834,14.808287 3.517769,14.766009 2.879878,13.79794 2.824408,13.71376" style="fill: black" />
    <polygon slic3r:type="hole" points="19.0585,1.705268 20.332038,3.421281 20.44278,3.570499 19.319736,5.14726 19.222079,5.28437 19.786042,5.28437 20.383505,4.439839 20.43546,4.3664 20.444881,4.353041 20.57048,4.171457 20.589433,4.143384 20.705826,3.955826 20.723542,3.926947 20.73039,3.937675 20.844787,4.112067 20.863392,4.139758 20.986879,4.307841 21.00674,4.334659 21.669341,5.208392 21.726959,5.28437 22.2421,5.28437 21.085356,3.732319 20.98477,3.597357 22.231352,1.856635 22.33975,1.705268 21.75381,1.705268 20.92501,2.879971 20.852939,2.98212 20.848808,2.988218 20.717558,3.189198 20.69669,3.221382 20.691282,3.212554 20.547727,2.986971 20.525792,2.952831 19.699225,1.805072 19.62735,1.705268" style="fill: black" />
  </g>
  <g id="layer25" slic3r:z="2.8e-006">
    <polygon slic3r:type="contour" points="40,30.000004 0,30.000004 0,0 40,0" style="fill: white" />
    <polygon slic3r:type="hole" points="2.272649,13.71376 3.529484,15.52919 3.70087,15.776748 3.70087,17.292862 4.174509,17.292862 4.174509,15.776749 5.388373,13.961318 5.5539,13.71376 4.977729,13.71376 4.356828,14.663369 4.272158,14.792862 4.256893,14.816971 4.114909,15.044795 4.078041,15.104885 3.943559,15.337219 3.90839,15.398331 3.894272,15.374368 3.749233,15.131989 3.710199,15.06761 3.558365,14.829424 3.517769,14.766009 2.907611,13.840029 2.824409,13.71376" style="fill: black" />
    <polygon slic3r:type="hole" points="19.0585,1.705268 20.217562,3.267032 20.44278,3.570498 19.368564,5.078705 19.22208,5.28437 19.786042,5.28437 20.35753,4.476557 20.435459,4.366401 20.449593,4.346361 20.563228,4.18207 20.591661,4.139961 20.696968,3.970265 20.723542,3.926947 20.733814,3.943039 20.837316,4.100823 20.865223,4.142356 20.976952,4.294433 21.00674,4.334659 21.640533,5.170404 21.72696,5.28437 22.2421,5.28437 21.135649,3.799799 20.98477,3.597358 22.177151,1.932319 22.33975,1.705268 21.75381,1.705268 20.961043,2.828898 20.85294,2.982119 20.846739,2.991269 20.727989,3.173108 20.69669,3.221382 20.688578,3.208141 20.558696,3.004042 20.525792,2.952831 19.735163,1.854975 19.62735,1.705268" style="fill: black" />
  </g>
  <g id="layer26" slic3r:z="2.9e-006">
    <polygon slic3r:type="contour" points="40,30.000004 0,30.000004 0,0 40,0" style="fill: white" />
    <polygon slic3r:type="hole" points="2.272648,13.71376 3.472354,15.44667 3.70087,15.776749 3.70087,17.292862 4.174509,17.292862 4.174509,15.776749 5.333196,14.043838 5.5539,13.71376 4.97773,13.71376 4.385051,14.620205 4.272159,14.792862 4.251804,14.825008 4.124766,15.02885 4.075609,15.10897 3.955282,15.316848 3.90839,15.398331 3.889566,15.366381 3.759796,15.149516 3.707748,15.063676 3.571898,14.850563 3.517769,14.766009 2.935346,13.882119 2.824408,13.71376" style="fill: black" />
    <polygon slic3r:type="hole" points="19.0585,1.705268 20.221296,3.272062 20.442779,3.570499 19.417392,5.01015 19.22208,5.28437 19.786042,5.28437 20.331554,4.513275 20.43546,4.3664 20.454303,4.339681 20.555978,4.192684 20.593887,4.136537 20.688109,3.984706 20.723542,3.926948 20.737238,3.948402 20.829845,4.089577 20.867054,4.144956 20.967021,4.281023 21.006739,4.334658 21.611723,5.132415 21.726959,5.28437 22.2421,5.28437 21.185942,3.86728 20.98477,3.597358 22.122954,2.008002 22.33975,1.705268 21.75381,1.705268 20.99708,2.777823 20.852939,2.98212 20.844673,2.994319 20.738423,3.157017 20.69669,3.221382 20.685874,3.203727 20.569663,3.021111 20.525791,2.95283 19.7711,1.904878 19.62735,1.705268" style="fill: black" />
  </g>
  <g id="layer27" slic3r:z="3e-006">
    <polygon slic3r:type="contour" points="40,30.000004 0,30.000004 0,0 40,0" style="fill: white" />
    <polygon slic3r:type="hole" points="2.272649,13.71376 3.415225,15.36415 3.70087,15.776749 3.70087,17.292862 4.174509,17.292862 4.174509,15.776749 5.278022,14.126357 5.553899,13.71376 4.97773,13.71376 4.413273,14.577041 4.272158,14.792862 4.246714,14.833046 4.134624,15.012905 4.073176,15.113056 3.967005,15.296479 3.90839,15.398331 3.884861,15.358394 3.770356,15.167041 3.705297,15.059741 3.58543,14.871702 3.517769,14.76601 2.96308,13.924209 2.824409,13.71376" style="fill: black" />
    <polygon slic3r:type="hole" points="19.0585,1.705268 20.165923,3.197452 20.44278,3.570498 19.46622,4.941595 19.22208,5.28437 19.786042,5.28437 20.305575,4.549995 20.435459,4.366401 20.459015,4.333001 20.548728,4.203298 20.596115,4.133114 20.679253,3.999145 20.723542,3.926948 20.740661,3.953764 20.822374,4.078332 20.868885,4.147554 20.957092,4.267615 21.006739,4.334658 21.582916,5.094428 21.72696,5.28437 22.2421,5.28437 21.236235,3.93476 20.98477,3.597358 22.33975,1.705268 21.753809,1.705268 21.033114,2.726749 20.85294,2.982119 20.842607,2.997368 20.748858,3.140924 20.69669,3.221382 20.68317,3.199313 20.580631,3.038181 20.525791,2.95283 19.807037,1.95478 19.62735,1.705268" style="fill: black" />
  </g>
  <g id="layer28" slic3r:z="3.1e-006">
    <polygon slic3r:type="contour" points="40,30.000004 0,30.000004 0,0 40,0" style="fill: white" />
    <polygon slic3r:type="hole" points="2.272649,13.71376 3.358096,15.281631 3.70087,15.776749 3.70087,17.292862 4.174509,17.292862 4.174509,15.776749 5.222846,14.208876 5.5539,13.71376 4.977729,13.71376 4.441496,14.533877 4.272159,14.792861 4.241626,14.841082 4.144479,14.996961 4.070742,15.117143 3.978729,15.276107 3.90839,15.398331 3.880155,15.350406 3.780919,15.184568 3.702847,15.055808 3.598961,14.892839 3.51777,14.76601 2.990815,13.966299 2.824408,13.71376" style="fill: black" />
    <polygon slic3r:type="hole" points="19.0585,1.705268 20.110551,3.122843 20.44278,3.570499 19.515048,4.87304 19.222079,5.28437 19.786041,5.28437 20.2796,4.586713 20.435459,4.366401 20.463728,4.32632 20.541477,4.213913 20.598344,4.12969 20.670395,4.013585 20.723542,3.926948 20.744086,3.959129 20.814901,4.067086 20.870718,4.150154 20.947161,4.254205 21.00674,4.334659 21.554107,5.056439 21.72696,5.28437 22.2421,5.28437 21.286529,4.00224 20.98477,3.597358 22.014553,2.15937 22.33975,1.705268 21.753809,1.705268 21.069148,2.675675 20.852939,2.98212 20.840541,3.000418 20.759291,3.124834 20.69669,3.221381 20.680466,3.194899 20.5916,3.055253 20.525792,2.95283 19.842975,2.004682 19.62735,1.705268" style="fill: black" />
  </g>
  <g id="layer29" slic3r:z="3.2e-006">
    <polygon slic3r:type="contour" points="40,30.000004 0,30.000004 0,0 40,0" style="fill: white" />
    <polygon slic3r:type="hole" points="2.272648,13.71376 3.300967,15.199111 3.70087,15.776749 3.70087,17.292862 4.174509,17.292862 4.174509,15.776749 5.167669,14.291397 5.5539,13.71376 4.977729,13.71376 4.469719,14.490712 4.272159,14.792861 4.236537,14.84912 4.154336,14.981017 4.06831,15.121227 3.990451,15.255738 3.90839,15.398331 3.87545,15.342419 3.79148,15.202094 3.700397,15.051875 3.612493,14.913977 3.51777,14.76601 3.018549,14.008389 2.824409,13.71376" style="fill: black" />
    <polygon slic3r:type="hole" points="19.0585,1.705268 20.055181,3.048234 20.44278,3.570499 19.507716,4.883334 19.22208,5.28437 19.786042,5.28437 20.253621,4.623433 20.43546,4.3664 20.468438,4.319641 20.534227,4.224526 20.600569,4.126268 20.661537,4.028024 20.723542,3.926948 20.747507,3.964491 20.807432,4.055841 20.872548,4.152754 20.937231,4.240797 21.00674,4.334659 21.525297,5.01845 21.72696,5.28437 22.2421,5.28437 21.336821,4.069721 20.98477,3.597358 21.960355,2.235054 22.33975,1.705268 21.75381,1.705268 21.105183,2.624602 20.85294,2.982119 20.838475,3.003467 20.769726,3.108742 20.69669,3.221382 20.677763,3.190485 20.602568,3.072323 20.525791,2.95283 19.878913,2.054585 19.62735,1.705268" style="fill: black" />
  </g>
  <g id="layer30" slic3r:z="3.3e-006">
    <polygon slic3r:type="contour" points="40,30.000004 0,30.000004 0,0 40,0" style="fill: white" />
    <polygon slic3r:type="hole" points="2.272649,13.71376 3.243838,15.116591 3.70087,15.776749 3.70087,17.292862 4.174509,17.292862 4.174509,15.776749 5.112494,14.373916 5.5539,13.71376 4.97773,13.71376 4.497941,14.447549 4.272159,14.792861 4.231448,14.857156 4.164194,14.965071 4.065876,15.125314 4.002174,15.235367 3.90839,15.398331 3.870743,15.334431 3.802042,15.219621 3.697946,15.04794 3.626026,14.935117 3.517769,14.766009 3.046285,14.05048 2.824408,13.71376" style="fill: black" />
    <polygon slic3r:type="hole" points="19.0585,1.705268 19.999809,2.973624 20.442779,3.570499 19.612704,4.735931 19.22208,5.28437 19.786041,5.28437 20.227645,4.660151 20.435459,4.366401 20.47315,4.312961 20.526975,4.23514 20.602797,4.122845 20.652679,4.042463 20.723542,3.926948 20.750931,3.969855 20.799959,4.044595 20.87438,4.155353 20.927304,4.227389 21.006739,4.334658 21.496489,4.980462 21.72696,5.28437 22.2421,5.28437 21.387116,4.137202 20.98477,3.597358 21.906156,2.310736 22.33975,1.705268 21.75381,1.705268 21.141217,2.573528 20.85294,2.982119 20.836408,3.006516 20.780158,3.09265 20.69669,3.221382 20.67506,3.186072 20.613535,3.089392 20.525791,2.95283 19.914851,2.104487 19.627349,1.705268" style="fill: black" />
  </g>
  <g id="layer31" slic3r:z="3.4e-006">
    <polygon slic3r:type="contour" points="40,30.000004 0,30.000004 0,0 40,0" style="fill: white" />
    <polygon slic3r:type="hole" points="2.272649,13.71376 3.18671,15.034072 3.70087,15.776749 3.70087,17.292862 4.174509,17.292862 4.174509,15.776749 5.057318,14.456436 5.5539,13.71376 4.97773,13.71376 4.526165,14.404384 4.272158,14.792862 4.22636,14.865192 4.174051,14.949127 4.063444,15.129399 4.013897,15.214997 3.90839,15.398331 3.866039,15.326445 3.812603,15.237146 3.695496,15.044006 3.639557,14.956254 3.51777,14.76601 3.074018,14.092569 2.824409,13.71376" style="fill: black" />
    <polygon slic3r:type="hole" points="19.0585,1.705268 19.944439,2.899015 20.44278,3.570499 19.661531,4.667377 19.22208,5.28437 19.786042,5.28437 20.20167,4.696869 20.435459,4.366401 20.477859,4.306282 20.519726,4.245753 20.605024,4.119421 20.643821,4.056903 20.723542,3.926948 20.754355,3.975218 20.792489,4.033349 20.87621,4.157952 20.917373,4.213979 21.00674,4.334659 21.46768,4.942474 21.726959,5.28437 22.2421,5.28437 21.437407,4.204682 20.98477,3.597358 21.851958,2.38642 22.339749,1.705268 21.75381,1.705268 21.177253,2.522454 20.85294,2.982119 20.834341,3.009567 20.790592,3.076559 20.69669,3.221382 20.672356,3.181658 20.624504,3.106464 20.525791,2.95283 19.950789,2.15439 19.62735,1.705268" style="fill: black" />
  </g>
  <g id="layer32" slic3r:z="3.5e-006">
    <polygon slic3r:type="contour" points="40,30.000004 0,30.000004 0,0 40,0" style="fill: white" />
    <polygon slic3r:type="hole" points="2.272649,13.71376 3.129581,14.951552 3.70087,15.776749 3.70087,17.292862 4.174509,17.292862 4.174509,15.776749 5.002143,14.538955 5.5539,13.71376 4.97773,13.71376 4.554387,14.36122 4.272158,14.792862 4.221271,14.873229 4.183906,14.933183 4.061012,15.133485 4.02562,15.194626 3.90839,15.398331 3.861333,15.318457 3.823164,15.254672 3.693045,15.040072 3.65309,14.977393 3.517769,14.766009 3.101754,14.13466 2.824408,13.71376" style="fill: black" />
    <polygon slic3r:type="hole" points="19.0585,1.705268 19.889068,2.824407 20.44278,3.570499 19.710359,4.598822 19.22208,5.28437 19.786042,5.28437 20.175691,4.733589 20.435459,4.366401 20.482572,4.299601 20.512476,4.256366 20.607251,4.115999 20.634963,4.071342 20.723542,3.926947 20.757779,3.980582 20.785018,4.022105 20.878041,4.16055 20.907444,4.200571 21.006739,4.334658 21.438872,4.904486 21.72696,5.28437 22.242099,5.28437 21.487701,4.272162 20.98477,3.597358 22.33975,1.705268 21.75381,1.705268 21.213287,2.471379 20.85294,2.982119 20.832275,3.012616 20.801026,3.060468 20.69669,3.221382 20.669652,3.177244 20.635472,3.123534 20.525791,2.95283 19.986726,2.204293 19.62735,1.705268" style="fill: black" />
  </g>
  <g id="layer33" slic3r:z="3.6e-006">
    <polygon slic3r:type="contour" points="40,30.000004 0,30.000004 0,0 40,0" style="fill: white" />
    <polygon slic3r:type="hole" points="2.272648,13.71376 3.072452,14.869033 3.70087,15.776749 3.70087,17.292862 4.174509,17.292862 4.174509,15.776749 4.946967,14.621475 5.5539,13.71376 4.977729,13.71376 4.582609,14.318057 4.272159,14.792861 4.216181,14.881267 4.193763,14.917239 4.058579,15.13757 4.037344,15.174256 3.90839,15.398331 3.856627,15.31047 3.833727,15.2722 3.690595,15.03614 3.666621,14.998531 3.51777,14.76601 3.129487,14.176749 2.824409,13.71376" style="fill: black" />
    <polygon slic3r:type="hole" points="19.0585,1.705268 19.833695,2.749797 20.44278,3.570499 19.759187,4.530267 19.222079,5.28437 19.786042,5.28437 20.149716,4.770307 20.43546,4.3664 20.487283,4.292922 20.505226,4.26698 20.609479,4.112575 20.626105,4.085782 20.723542,3.926948 20.761204,3.985946 20.777545,4.010859 20.879873,4.163149 20.897514,4.187162 21.00674,4.334659 21.410064,4.866497 21.72696,5.28437 22.2421,5.28437 21.537995,4.339643 20.98477,3.597358 21.743558,2.537787 22.33975,1.705268 21.75381,1.705268 21.249321,2.420305 20.85294,2.982119 20.830209,3.015666 20.811459,3.044377 20.69669,3.221382 20.666947,3.17283 20.646439,3.140603 20.525791,2.95283 20.022663,2.254195 19.62735,1.705268" style="fill: black" />
  </g>
  <g id="layer34" slic3r:z="3.69999999999999e-006">
    <polygon slic3r:type="contour" points="40,30.000004 0,30.000004 0,0 40,0" style="fill: white" />
    <polygon slic3r:type="hole" points="2.272649,13.71376 3.015323,14.786513 3.70087,15.776749 3.70087,17.292862 4.174509,17.292862 4.174509,15.776749 4.891791,14.703995 5.553899,13.71376 4.97773,13.71376 4.610832,14.274893 4.272159,14.792861 4.211094,14.889303 4.20362,14.901294 4.056146,15.141657 4.049067,15.153885 3.90839,15.398331 3.851922,15.302483 3.844287,15.289725 3.688145,15.032206 3.680153,15.019669 3.51777,14.76601 3.157222,14.218839 2.824408,13.71376" style="fill: black" />
    <polygon slic3r:type="hole" points="19.0585,1.705268 19.778325,2.675187 20.44278,3.570499 19.808016,4.461711 19.222079,5.28437 19.786041,5.28437 20.12374,4.807025 20.43546,4.3664 20.491993,4.286242 20.497975,4.277595 20.611706,4.109151 20.617248,4.10022 20.723542,3.926948 20.764628,3.99131 20.770076,3.999614 20.881703,4.165749 20.887584,4.173754 21.00674,4.334659 21.381254,4.828509 21.72696,5.28437 22.2421,5.28437 21.588288,4.407124 20.98477,3.597358 21.68936,2.613471 22.33975,1.705268 21.75381,1.705268 21.285358,2.36923 20.852939,2.98212 20.828144,3.018715 20.821893,3.028286 20.69669,3.221382 20.664243,3.168416 20.657408,3.157675 20.525791,2.95283 20.058601,2.304097 19.62735,1.705268" style="fill: black" />
  </g>
  <g id="layer35" slic3r:z="3.79999999999999e-006">
    <polygon slic3r:type="contour" points="40,30.000004 0,30.000004 0,0 40,0" style="fill: white" />
    <polygon slic3r:type="hole" points="2.272649,13.71376 2.958194,14.703994 3.70087,15.776749 3.70087,17.292862 4.174509,17.292862 4.174509,15.776749 4.836615,14.786514 5.5539,13.71376 4.97773,13.71376 4.639056,14.231728 4.272159,14.792861 4.211094,14.889303 4.20362,14.901294 4.056146,15.141657 4.049067,15.153885 3.90839,15.398331 3.851922,15.302483 3.844287,15.289725 3.688145,15.032206 3.680153,15.019669 3.51777,14.76601 3.184956,14.260929 2.824409,13.71376" style="fill: black" />
    <polygon slic3r:type="hole" points="19.0585,1.705268 19.66385,2.52094 20.44278,3.570499 19.856843,4.393157 19.22208,5.28437 19.786042,5.28437 20.097761,4.843745 20.43546,4.3664 20.491993,4.286242 20.497975,4.277595 20.611706,4.109151 20.617248,4.10022 20.723542,3.926948 20.764628,3.99131 20.770076,3.999614 20.881703,4.165749 20.887584,4.173754 21.00674,4.334659 21.352445,4.79052 21.72696,5.28437 22.2421,5.28437 21.638581,4.474604 20.98477,3.597358 21.635159,2.689155 22.339749,1.705268 21.75381,1.705268 21.321391,2.318157 20.852939,2.98212 20.828144,3.018715 20.821893,3.028286 20.69669,3.221382 20.664243,3.168416 20.657408,3.157675 20.525792,2.95283 20.094539,2.354 19.62735,1.705268" style="fill: black" />
  </g>
  <g id="layer36" slic3r:z="3.89999999999999e-006">
    <polygon slic3r:type="contour" points="40,30.000004 0,30.000004 0,0 40,0" style="fill: white" />
    <polygon slic3r:type="hole" points="2.272649,13.71376 2.901066,14.621474 3.70087,15.776748 3.70087,17.292862 4.174509,17.292862 4.174509,15.776749 4.781441,14.869033 5.5539,13.71376 4.977729,13.71376 4.667279,14.188564 4.272159,14.792861 4.216181,14.881267 4.193763,14.917239 4.058579,15.13757 4.037344,15.174256 3.90839,15.398331 3.856627,15.31047 3.833727,15.2722 3.690595,15.03614 3.666621,14.998531 3.517769,14.766009 3.212691,14.30302 2.824409,13.71376" style="fill: black" />
    <polygon slic3r:type="hole" points="19.0585,1.705268 19.667583,2.525969 20.44278,3.570499 19.849512,4.40345 19.22208,5.28437 19.786042,5.28437 20.071786,4.880463 20.43546,4.3664 20.487283,4.292922 20.505226,4.26698 20.609479,4.112575 20.626105,4.085782 20.723542,3.926948 20.761204,3.985946 20.777545,4.010859 20.879873,4.163149 20.897514,4.187162 21.00674,4.334659 21.323635,4.752531 21.72696,5.28437 22.2421,5.28437 21.688874,4.542085 20.98477,3.597358 21.637502,2.685885 22.33975,1.705268 21.75381,1.705268 21.357428,2.267082 20.85294,2.982119 20.830209,3.015666 20.811459,3.044377 20.69669,3.221382 20.666947,3.17283 20.646439,3.140603 20.525791,2.95283 20.130477,2.403902 19.62735,1.705268" style="fill: black" />
  </g>
  <g id="layer37" slic3r:z="3.99999999999999e-006">
    <polygon slic3r:type="contour" points="40,30.000004 0,30.000004 0,0 40,0" style="fill: white" />
    <polygon slic3r:type="hole" points="2.272649,13.71376 2.843937,14.538955 3.70087,15.776749 3.70087,17.292862 4.174509,17.292862 4.174509,15.776749 4.726264,14.951553 5.5539,13.71376 4.97773,13.71376 4.695501,14.145401 4.272159,14.792861 4.221271,14.873229 4.183906,14.933183 4.061012,15.133485 4.02562,15.194626 3.90839,15.398331 3.861333,15.318457 3.823164,15.254672 3.693045,15.040072 3.65309,14.977393 3.517769,14.766009 3.240425,14.345109 2.824409,13.71376" style="fill: black" />
    <polygon slic3r:type="hole" points="19.0585,1.705268 19.612212,2.451361 20.44278,3.570499 19.9545,4.256047 19.22208,5.28437 19.786042,5.28437 20.04581,4.917182 20.435459,4.366401 20.482572,4.299601 20.512476,4.256366 20.607251,4.115999 20.634963,4.071342 20.723542,3.926947 20.757779,3.980582 20.785018,4.022105 20.878041,4.16055 20.907444,4.200571 21.006739,4.334658 21.294828,4.714544 21.72696,5.28437 22.2421,5.28437 21.739168,4.609566 20.98477,3.597358 22.33975,1.705268 21.753809,1.705268 21.393462,2.216008 20.85294,2.982119 20.832275,3.012616 20.801026,3.060468 20.69669,3.221382 20.669652,3.177244 20.635472,3.123534 20.525791,2.95283 20.166415,2.453805 19.62735,1.705268" style="fill: black" />
  </g>
  <g id="layer38" slic3r:z="4.09999999999999e-006">
    <polygon slic3r:type="contour" points="40,30.000004 0,30.000004 0,0 40,0" style="fill: white" />
    <polygon slic3r:type="hole" points="2.272649,13.71376 2.786808,14.456435 3.70087,15.776749 3.70087,17.292862 4.174509,17.292862 4.174509,15.776749 4.671088,15.034073 5.5539,13.71376 4.97773,13.71376 4.723723,14.102237 4.272158,14.792862 4.22636,14.865192 4.174051,14.949127 4.063444,15.129399 4.013897,15.214997 3.90839,15.398331 3.866039,15.326445 3.812603,15.237146 3.695496,15.044006 3.639557,14.956254 3.51777,14.76601 3.268159,14.387199 2.824408,13.71376" style="fill: black" />
    <polygon slic3r:type="hole" points="19.0585,1.705268 19.55684,2.376752 20.44278,3.570498 20.003328,4.187492 19.22208,5.28437 19.786042,5.28437 20.019831,4.953901 20.43546,4.3664 20.477859,4.306282 20.519726,4.245753 20.605024,4.119421 20.643821,4.056903 20.723542,3.926948 20.754355,3.975218 20.792489,4.033349 20.87621,4.157952 20.917373,4.213979 21.00674,4.334659 21.266019,4.676554 21.72696,5.28437 22.2421,5.28437 21.789461,4.677045 20.98477,3.597358 21.472562,2.916205 22.33975,1.705268 21.75381,1.705268 21.429496,2.164934 20.852939,2.98212 20.834341,3.009567 20.790592,3.076559 20.69669,3.221382 20.672356,3.181658 20.624504,3.106464 20.525791,2.95283 20.202351,2.503707 19.627349,1.705268" style="fill: black" />
  </g>
  <g id="layer39" slic3r:z="4.19999999999999e-006">
    <polygon slic3r:type="contour" points="40,30.000004 0,30.000004 0,0 40,0" style="fill: white" />
    <polygon slic3r:type="hole" points="2.272648,13.71376 2.729679,14.373915 3.70087,15.776749 3.70087,17.292862 4.174509,17.292862 4.174509,15.776749 4.615913,15.116592 5.553899,13.71376 4.97773,13.71376 4.729762,14.093001 4.272158,14.792862 4.231448,14.857156 4.164194,14.965071 4.065876,15.125314 4.002174,15.235367 3.90839,15.398331 3.870743,15.334431 3.802042,15.219621 3.697946,15.04794 3.626026,14.935117 3.517769,14.766009 3.295895,14.42929 2.824409,13.71376" style="fill: black" />
    <polygon slic3r:type="hole" points="19.0585,1.705268 19.50147,2.302142 20.44278,3.570499 20.052156,4.118937 19.22208,5.28437 19.786042,5.28437 19.993856,4.990619 20.435459,4.366401 20.47315,4.312961 20.526975,4.23514 20.602797,4.122845 20.652679,4.042463 20.723542,3.926948 20.750931,3.969855 20.799959,4.044595 20.87438,4.155353 20.927304,4.227389 21.00674,4.334659 21.237209,4.638566 21.72696,5.28437 22.242099,5.28437 21.839753,4.744526 20.98477,3.597358 21.418364,2.991889 22.33975,1.705268 21.75381,1.705268 21.465532,2.11386 20.852939,2.98212 20.836408,3.006516 20.780158,3.09265 20.69669,3.221382 20.67506,3.186072 20.613535,3.089392 20.525791,2.95283 20.238289,2.55361 19.62735,1.705268" style="fill: black" />
  </g>
  <g id="layer40" slic3r:z="4.29999999999999e-006">
    <polygon slic3r:type="contour" points="40,30.000004 0,30.000004 0,0 40,0" style="fill: white" />
    <polygon slic3r:type="hole" points="2.272648,13.71376 2.67255,14.291396 3.70087,15.776749 3.70087,17.292862 4.174509,17.292862 4.174509,15.776749 4.560737,15.199112 5.5539,13.71376 4.97773,13.71376 4.780169,14.015909 4.272159,14.792861 4.236537,14.84912 4.154336,14.981017 4.06831,15.121227 3.990451,15.255738 3.90839,15.398331 3.87545,15.342419 3.79148,15.202094 3.700397,15.051875 3.612493,14.913977 3.51777,14.76601 3.323628,14.471379 2.824409,13.71376" style="fill: black" />
    <polygon slic3r:type="hole" points="19.0585,1.705268 19.446097,2.227532 20.442779,3.570499 20.100983,4.050383 19.222079,5.28437 19.786042,5.28437 19.96788,5.027338 20.435459,4.366401 20.468438,4.319641 20.534227,4.224526 20.600569,4.126268 20.661537,4.028024 20.723542,3.926948 20.747507,3.964491 20.807432,4.055841 20.872548,4.152754 20.937231,4.240797 21.00674,4.334659 21.208402,4.600578 21.72696,5.28437 22.2421,5.28437 21.890047,4.812006 20.98477,3.597358 21.364163,3.067573 22.33975,1.705268 21.75381,1.705268 21.446063,2.141454 20.852939,2.98212 20.838475,3.003467 20.769726,3.108742 20.69669,3.221382 20.677763,3.190485 20.602568,3.072323 20.525792,2.952831 20.274227,2.603512 19.62735,1.705268" style="fill: black" />
  </g>
  <g id="layer41" slic3r:z="4.39999999999999e-006">
    <polygon slic3r:type="contour" points="40,30.000004 0,30.000004 0,0 40,0" style="fill: white" />
    <polygon slic3r:type="hole" points="2.272649,13.71376 2.615422,14.208877 3.70087,15.776749 3.70087,17.292862 4.174509,17.292862 4.174509,15.776748 4.528332,15.247577 5.553899,13.71376 4.97773,13.71376 4.823164,13.950151 4.272159,14.792861 4.241626,14.841082 4.144479,14.996961 4.070742,15.117143 3.978729,15.276107 3.90839,15.398331 3.880155,15.350406 3.780919,15.184568 3.702847,15.055808 3.598961,14.892839 3.51777,14.76601 3.351363,14.513469 2.824409,13.71376" style="fill: black" />
    <polygon slic3r:type="hole" points="19.0585,1.705268 19.390727,2.152923 20.44278,3.570499 20.149811,3.981828 19.222079,5.28437 19.786042,5.28437 19.941902,5.064057 20.435459,4.366401 20.463728,4.32632 20.541477,4.213913 20.598344,4.12969 20.670395,4.013585 20.723542,3.926948 20.744086,3.959129 20.814901,4.067086 20.870718,4.150154 20.947161,4.254205 21.00674,4.334659 21.179591,4.562589 21.72696,5.28437 22.2421,5.28437 21.940339,4.879486 20.984769,3.597358 21.309966,3.143256 22.33975,1.705268 21.753809,1.705268 21.537602,2.011712 20.85294,2.982119 20.840541,3.000418 20.759291,3.124834 20.69669,3.221381 20.680466,3.194899 20.5916,3.055253 20.525792,2.95283 20.310165,2.653415 19.62735,1.705268" style="fill: black" />
  </g>
  <g id="layer42" slic3r:z="4.49999999999999e-006">
    <polygon slic3r:type="contour" points="40,30.000004 0,30.000004 0,0 40,0" style="fill: white" />
    <polygon slic3r:type="hole" points="2.272649,13.71376 2.558293,14.126357 3.70087,15.776749 3.70087,17.292862 4.174509,17.292862 4.174509,15.776749 4.450386,15.364151 5.5539,13.71376 4.97773,13.71376 4.836615,13.92958 4.272158,14.792862 4.246714,14.833046 4.134624,15.012905 4.073176,15.113056 3.967005,15.296479 3.90839,15.398331 3.884861,15.358394 3.770356,15.167041 3.705297,15.059741 3.58543,14.871702 3.517769,14.766009 3.379098,14.55556 2.824409,13.71376" style="fill: black" />
    <polygon slic3r:type="hole" points="19.0585,1.705268 19.335355,2.078314 20.44278,3.570499 20.198639,3.913273 19.22208,5.28437 19.786042,5.28437 19.971616,5.022056 19.971615,5.022056 20.43546,4.3664 20.459015,4.333001 20.548728,4.203298 20.596115,4.133114 20.679253,3.999145 20.723542,3.926948 20.740661,3.953764 20.822374,4.078332 20.868885,4.147554 20.957092,4.267615 21.00674,4.334659 21.150783,4.5246 21.72696,5.28437 22.2421,5.28437 21.990634,4.946968 20.98477,3.597358 22.33975,1.705268 21.753809,1.705268 21.573636,1.960638 20.852939,2.98212 20.842607,2.997368 20.748858,3.140924 20.69669,3.221382 20.68317,3.199313 20.580631,3.038181 20.525791,2.95283 20.346103,2.703317 19.62735,1.705268" style="fill: black" />
  </g>
  <g id="layer43" slic3r:z="4.59999999999999e-006">
    <polygon slic3r:type="contour" points="40,30.000004 0,30.000004 0,0 40,0" style="fill: white" />
    <polygon slic3r:type="hole" points="2.272649,13.71376 2.501164,14.043837 3.70087,15.776749 3.70087,17.292862 4.174509,17.292862 4.174509,15.776749 4.39521,15.446671 5.5539,13.71376 4.97773,13.71376 4.864838,13.886416 4.272159,14.792861 4.251804,14.825008 4.124766,15.02885 4.075609,15.10897 3.955282,15.316848 3.90839,15.398331 3.889566,15.366381 3.759796,15.149516 3.707748,15.063676 3.571898,14.850563 3.517769,14.766009 3.406832,14.597649 2.824409,13.71376" style="fill: black" />
    <polygon slic3r:type="hole" points="19.058499,1.705268 19.294946,2.023866 19.294947,2.023866 20.442779,3.570499 20.247468,3.844718 19.22208,5.28437 19.786042,5.28437 19.889947,5.137495 20.43546,4.3664 20.454303,4.339681 20.555978,4.192684 20.593887,4.136537 20.688109,3.984706 20.723542,3.926948 20.737238,3.948402 20.829845,4.089577 20.867054,4.144956 20.967021,4.281023 21.00674,4.334659 21.121975,4.486612 21.72696,5.28437 22.2421,5.28437 22.100342,5.094167 20.98477,3.597358 21.201565,3.294624 22.33975,1.705268 21.75381,1.705268 21.609669,1.909565 20.852939,2.98212 20.844673,2.994319 20.738423,3.157017 20.69669,3.221382 20.685874,3.203727 20.569663,3.021111 20.525792,2.952831 20.382041,2.75322 19.62735,1.705268" style="fill: black" />
  </g>
  <g id="layer44" slic3r:z="4.69999999999999e-006">
    <polygon slic3r:type="contour" points="40,30.000004 0,30.000004 0,0 40,0" style="fill: white" />
    <polygon slic3r:type="hole" points="2.272648,13.71376 2.444035,13.961318 3.70087,15.776749 3.70087,17.292862 4.174509,17.292862 4.174509,15.776749 4.340035,15.52919 5.5539,13.71376 4.97773,13.71376 4.89306,13.843252 4.272159,14.792861 4.256893,14.816971 4.114909,15.044795 4.078041,15.104885 3.943559,15.337219 3.90839,15.398331 3.894272,15.374368 3.749233,15.131989 3.710199,15.06761 3.558365,14.829424 3.51777,14.76601 3.434566,14.639739 2.824409,13.71376" style="fill: black" />
    <polygon slic3r:type="hole" points="19.0585,1.705268 19.224613,1.929095 20.44278,3.570499 20.296295,3.776164 19.222079,5.28437 19.786042,5.28437 19.919661,5.095494 20.43546,4.3664 20.449593,4.346361 20.563228,4.18207 20.591661,4.139961 20.696968,3.970265 20.723542,3.926947 20.733814,3.943039 20.837316,4.100823 20.865223,4.142356 20.976952,4.294433 21.006739,4.334658 21.066874,4.413955 21.72696,5.28437 22.2421,5.28437 22.091219,5.081928 20.98477,3.597358 21.147368,3.370307 22.33975,1.705268 21.75381,1.705268 21.645705,1.858491 20.85294,2.982119 20.846739,2.991269 20.727989,3.173108 20.69669,3.221382 20.688578,3.208141 20.558696,3.004042 20.525792,2.95283 20.417979,2.803122 19.62735,1.705268" style="fill: black" />
  </g>
  <g id="layer45" slic3r:z="4.79999999999999e-006">
    <polygon slic3r:type="contour" points="40,30.000004 0,30.000004 0,0 40,0" style="fill: white" />
    <polygon slic3r:type="hole" points="2.272649,13.71376 2.386906,13.878798 3.70087,15.776749 3.70087,17.292862 4.174509,17.292862 4.174509,15.776749 4.28486,15.611709 5.5539,13.71376 4.97773,13.71376 4.921283,13.800088 4.272158,14.792862 4.261981,14.808936 4.105054,15.060738 4.080474,15.100799 3.931836,15.357589 3.90839,15.398331 3.898977,15.382355 3.738673,15.114463 3.712648,15.071542 3.544834,14.808287 3.517769,14.766009 3.462302,14.68183 2.824409,13.71376" style="fill: black" />
    <polygon slic3r:type="hole" points="19.058499,1.705268 19.169241,1.854486 20.44278,3.570499 20.345124,3.707608 19.22208,5.28437 19.786042,5.28437 19.837995,5.210933 20.43546,4.3664 20.444881,4.353041 20.57048,4.171457 20.589433,4.143384 20.705826,3.955826 20.723542,3.926947 20.73039,3.937675 20.844787,4.112067 20.863392,4.139758 20.986879,4.307841 21.00674,4.334659 21.064357,4.410635 21.72696,5.28437 22.2421,5.28437 22.200928,5.229128 20.98477,3.597358 21.093167,3.445991 22.339749,1.705268 21.75381,1.705268 21.68174,1.807416 20.852939,2.98212 20.848808,2.988218 20.717558,3.189198 20.69669,3.221382 20.691282,3.212554 20.547727,2.986971 20.525792,2.952831 20.453915,2.853025 19.62735,1.705268" style="fill: black" />
  </g>
  <g id="layer46" slic3r:z="4.89999999999999e-006">
    <polygon slic3r:type="contour" points="40,30.000004 0,30.000004 0,0 40,0" style="fill: white" />
    <polygon slic3r:type="hole" points="2.272648,13.71376 2.329777,13.796279 3.70087,15.776749 3.70087,17.292862 4.174509,17.292862 4.174509,15.776748 4.229683,15.694229 5.5539,13.71376 4.97773,13.71376 4.949506,13.756924 4.272159,14.792861 4.26707,14.800898 4.095196,15.076684 4.082907,15.096713 3.920113,15.37796 3.90839,15.39833 3.903684,15.390344 3.728111,15.096937 3.715099,15.075477 3.531301,14.787147 3.51777,14.76601 3.490036,14.72392 2.824409,13.71376" style="fill: black" />
    <polygon slic3r:type="hole" points="19.0585,1.705268 20.44278,3.570499 20.393951,3.639054 19.222079,5.28437 19.786041,5.28437 19.812017,5.247652 20.435459,4.366401 20.440172,4.35972 20.577729,4.160844 20.587207,4.146807 20.714684,3.941387 20.723541,3.926948 20.726966,3.932312 20.852257,4.123313 20.861562,4.137159 20.996809,4.321249 21.00674,4.334659 21.035548,4.372648 21.72696,5.28437 22.242098,5.28437 20.98477,3.597358 21.038969,3.521675 22.33975,1.705268 21.75381,1.705268 21.717776,1.756341 20.852939,2.98212 20.850874,2.985169 20.707123,3.205291 20.69669,3.221381 20.693985,3.216967 20.53676,2.969901 20.525792,2.952831 20.489853,2.902927 19.62735,1.705268" style="fill: black" />
  </g>
  <g id="layer47" slic3r:z="4.99999999999999e-006">
    <polygon slic3r:type="contour" points="40,30.000004 0,30.000004 0,0 40,0" style="fill: white" />
    <polygon slic3r:type="hole" points="2.272649,13.71376 3.70087,15.776749 3.70087,17.292862 4.174509,17.292862 4.174509,15.776749 5.5539,13.71376 4.97773,13.71376 4.272159,14.792861 4.08534,15.092627 3.90839,15.398331 3.71755,15.079411 3.517769,14.766009 2.824409,13.71376" style="fill: black" />
    <polygon slic3r:type="hole" points="19.0585,1.705268 20.44278,3.570499 19.222079,5.28437 19.786042,5.28437 20.43546,4.3664 20.584979,4.15023 20.723542,3.926947 20.859729,4.134558 21.006739,4.334658 21.72696,5.28437 22.2421,5.28437 20.98477,3.597358 22.33975,1.705268 21.75381,1.705268 20.852939,2.98212 20.696689,3.221382 20.525792,2.952831 19.62735,1.705268" style="fill: black" />
  </g>
</svg>
